<svg width="1000" height="1000" viewBox="0 0 1000 1000" fill="none" xmlns="http://www.w3.org/2000/svg">
<rect width="1000" height="1000" fill="white"/>
<path d="M467.858 197V195.5V195.5V197ZM484.206 207.395L485.548 206.724V206.724L484.206 207.395ZM486.642 214.47L488.108 214.155V214.155L486.642 214.47ZM487.049 216.801L488.536 216.604L488.536 216.603L487.049 216.801ZM487.126 217.459L488.619 217.31V217.31L487.126 217.459ZM487.143 217.636L488.637 217.508L488.637 217.508L487.143 217.636ZM487.146 217.683L485.651 217.799L485.651 217.8L487.146 217.683ZM487.147 217.695L485.652 217.809L485.652 217.809L487.147 217.695ZM487.148 217.699H488.648V217.642L488.644 217.584L487.148 217.699ZM487.148 217.7L488.644 217.811L488.648 217.755V217.7H487.148ZM486.649 217.736L486.543 216.24L486.755 219.233L486.649 217.736ZM487.148 217.701L488.646 217.618L488.562 216.098L487.043 216.205L487.148 217.701ZM487.149 217.719H488.649V217.677L488.647 217.636L487.149 217.719ZM487.149 254.298H485.649V254.756L485.905 255.136L487.149 254.298ZM496.025 267.47L494.781 268.308L494.783 268.311L496.025 267.47ZM496.111 267.597H497.611V267.137L497.353 266.756L496.111 267.597ZM496.111 280.618L497.367 281.439L497.611 281.065V280.618H496.111ZM496.03 280.742L495.212 282L496.467 282.816L497.286 281.563L496.03 280.742ZM495.611 280.47L496.429 279.212L494.79 281.725L495.611 280.47ZM496.029 280.743L497.371 281.414L497.968 280.219L496.85 279.488L496.029 280.743ZM496.028 280.745L497.281 281.57L497.33 281.496L497.37 281.416L496.028 280.745ZM496.025 280.749L494.773 279.923L494.773 279.924L496.025 280.749ZM496.016 280.765L494.766 279.935L494.766 279.935L496.016 280.765ZM495.978 280.821L497.22 281.662L497.22 281.662L495.978 280.821ZM495.831 281.032L494.605 280.169V280.169L495.831 281.032ZM495.279 281.778L496.466 282.695H496.466L495.279 281.778ZM493.277 284.055L494.334 285.119L494.334 285.119L493.277 284.055ZM486.676 287.618L486.755 289.116H486.755L486.676 287.618ZM481.139 286.649L480.665 288.073L480.665 288.073L481.139 286.649ZM479.137 285.897L478.557 287.281L478.557 287.281L479.137 285.897ZM478.555 285.646L477.938 287.013L477.938 287.013L478.555 285.646ZM478.528 285.633L479.147 284.266L478.599 284.018L478.031 284.218L478.528 285.633ZM468.024 289.325L468.504 290.746L468.513 290.743L468.522 290.74L468.024 289.325ZM467.943 289.353V290.853H468.19L468.423 290.774L467.943 289.353ZM441.331 289.353L440.225 290.366L440.671 290.853H441.331V289.353ZM441.183 289.19L442.289 288.177L442.288 288.177L441.183 289.19ZM434.822 282.253L433.714 283.263L433.717 283.267L434.822 282.253ZM434.691 282.109H433.191V282.69L433.583 283.12L434.691 282.109ZM434.691 273.742H436.191V272.242H434.691V273.742ZM430.198 273.742V272.242H428.698V273.742H430.198ZM430.198 280.126H428.698V281.156L429.66 281.526L430.198 280.126ZM433.636 281.448L433.097 282.848L433.098 282.848L433.636 281.448ZM434.058 281.61L435.504 282.006L435.863 280.697L434.596 280.21L434.058 281.61ZM433.938 282.046L432.492 281.65L432.491 281.651L433.938 282.046ZM433.156 284.912L431.709 284.517L431.452 285.46L432.211 286.076L433.156 284.912ZM437.53 288.465L438.478 287.302L438.476 287.301L437.53 288.465ZM437.715 288.615H439.215V287.903L438.662 287.452L437.715 288.615ZM437.715 294.088L438.341 295.451L439.215 295.049V294.088H437.715ZM437.424 294.222L436.797 292.859L436.795 292.86L437.424 294.222ZM429.908 297.69L430.534 299.054L430.537 299.052L429.908 297.69ZM429.753 297.762L429.426 299.226L429.919 299.336L430.379 299.125L429.753 297.762ZM429.587 297.725L429.254 299.187L429.26 299.188L429.587 297.725ZM400.389 291.075L400.054 292.537L400.056 292.538L400.389 291.075ZM400 290.986H398.5V292.182L399.666 292.449L400 290.986ZM400 286.932L398.868 285.948L398.5 286.371V286.932H400ZM400.123 286.79L398.991 285.806L398.991 285.806L400.123 286.79ZM405.904 280.142L407.036 281.126L407.036 281.126L405.904 280.142ZM406.054 279.97V278.47H405.37L404.922 278.986L406.054 279.97ZM414.42 279.97V281.47H415.153L415.604 280.891L414.42 279.97ZM418.318 274.959L419.502 275.88L419.505 275.876L418.318 274.959ZM418.468 274.766V273.266H417.731L417.281 273.848L418.468 274.766ZM420.727 274.766V276.266H421.623L422.047 275.477L420.727 274.766ZM424.617 267.54L425.938 268.251L425.974 268.184L426.004 268.113L424.617 267.54ZM446.563 214.409L447.95 214.982L448.001 214.859L448.029 214.729L446.563 214.409ZM446.565 214.4L445.1 214.078L445.1 214.079L446.565 214.4ZM446.601 214.249L445.141 213.903L445.141 213.903L446.601 214.249ZM446.745 213.69L445.299 213.291L445.299 213.291L446.745 213.69ZM447.389 211.717L445.983 211.193V211.193L447.389 211.717ZM450.539 205.738L449.317 204.868L449.317 204.868L450.539 205.738ZM466.991 204.517L466.991 203.017H466.991L466.991 204.517ZM456.907 209.92L455.707 209.02L455.707 209.02L456.907 209.92ZM454.747 213.591L453.381 212.971L453.381 212.971L454.747 213.591ZM454.246 214.804L452.839 214.284L452.839 214.284L454.246 214.804ZM454.124 215.148L452.702 214.672L452.702 214.672L454.124 215.148ZM454.094 215.242L452.665 214.785L452.665 214.785L454.094 215.242ZM454.091 215.25L455.474 215.831L455.499 215.77L455.519 215.707L454.091 215.25ZM435.02 260.617L436.402 261.199L436.402 261.198L435.02 260.617ZM434.728 261.312L433.345 260.73L432.469 262.812H434.728V261.312ZM438.151 261.312V262.812H439.227L439.572 261.793L438.151 261.312ZM438.267 260.972L439.687 261.453L439.69 261.446L438.267 260.972ZM438.268 260.969L436.849 260.482L436.845 260.494L438.268 260.969ZM438.272 260.955L439.691 261.444L439.691 261.444L438.272 260.955ZM438.291 260.902L439.707 261.397L439.707 261.397L438.291 260.902ZM438.364 260.694L436.953 260.186L436.953 260.186L438.364 260.694ZM438.652 259.925L437.253 259.384L437.253 259.384L438.652 259.925ZM439.729 257.382L438.367 256.753L438.367 256.753L439.729 257.382ZM443.353 251.623L442.287 250.567L442.287 250.567L443.353 251.623ZM448.254 248.271L447.551 246.945L447.551 246.945L448.254 248.271ZM450.401 247.209L449.775 245.846H449.775L450.401 247.209ZM451.05 246.919L450.45 245.544L450.45 245.544L451.05 246.919ZM451.225 246.843L450.637 245.463L450.637 245.463L451.225 246.843ZM451.27 246.824L451.852 248.207L451.853 248.206L451.27 246.824ZM451.28 246.819L450.713 245.431L450.702 245.435L451.28 246.819ZM451.283 246.818V245.318H450.983L450.706 245.434L451.283 246.818ZM451.284 246.818V248.318H454.905L452.345 245.758L451.284 246.818ZM451.283 246.817L450.71 245.431L448.634 246.289L450.223 247.878L451.283 246.817ZM451.491 246.731L452.064 248.118L452.689 247.859L452.91 247.219L451.491 246.731ZM451.564 246.519L452.983 247.007L452.987 246.994L452.991 246.982L451.564 246.519ZM451.565 246.515L450.15 246.017L450.15 246.017L451.565 246.515ZM451.572 246.497L450.16 245.99L450.16 245.99L451.572 246.497ZM451.601 246.419L453.005 246.947L453.005 246.947L451.601 246.419ZM451.723 246.113L450.337 245.539L450.337 245.539L451.723 246.113ZM452.237 245.003L450.901 244.322L450.901 244.322L452.237 245.003ZM454.473 241.62L453.326 240.653L453.326 240.653L454.473 241.62ZM464.679 236.738L464.679 235.238H464.679V236.738ZM475.824 240.679L476.753 239.501L476.753 239.501L475.824 240.679ZM478.648 243.393L479.791 242.42V242.42L478.648 243.393ZM479.354 244.28L480.564 243.394L480.564 243.394L479.354 244.28ZM479.527 244.524L480.775 243.692L480.77 243.685L480.765 243.677L479.527 244.524ZM479.58 244.604L480.842 243.792L480.835 243.782L480.828 243.771L479.58 244.604ZM480.501 246.035L479.239 246.847L482.001 251.14V246.035H480.501ZM480.501 218.271H482.001V218.133L481.976 217.997L480.501 218.271ZM480.493 218.229L481.968 217.955L481.697 216.499L480.238 216.751L480.493 218.229ZM480.001 218.314L479.744 216.837L480.256 219.793L480.001 218.314ZM480.493 218.229H478.993V218.356L479.015 218.482L480.493 218.229ZM480.493 218.228H481.993V217.873L481.835 217.557L480.493 218.228ZM480.492 218.226L479.015 218.485L479.053 218.701L479.151 218.896L480.492 218.226ZM480.491 218.217L481.968 217.951L481.967 217.95L480.491 218.217ZM480.485 218.185L481.96 217.909L481.96 217.909L480.485 218.185ZM480.462 218.067L478.991 218.363L478.991 218.363L480.462 218.067ZM480.367 217.631L481.829 217.293V217.293L480.367 217.631ZM479.95 216.09L481.384 215.648V215.648L479.95 216.09ZM477.94 211.416L479.24 210.667L479.24 210.667L477.94 211.416ZM467.858 197V198.5C476.033 198.5 480.443 203.223 482.864 208.065L484.206 207.395L485.548 206.724C482.801 201.231 477.527 195.5 467.858 195.5V197ZM484.206 207.395L482.864 208.065C484.08 210.497 484.78 212.941 485.175 214.784L486.642 214.47L488.108 214.155C487.679 212.15 486.91 209.448 485.548 206.724L484.206 207.395ZM486.642 214.47L485.175 214.784C485.372 215.703 485.491 216.467 485.562 216.998L487.049 216.801L488.536 216.603C488.457 216.006 488.324 215.163 488.108 214.155L486.642 214.47ZM487.049 216.801L485.562 216.998C485.597 217.262 485.619 217.469 485.633 217.608L487.126 217.459L488.619 217.31C488.602 217.143 488.576 216.904 488.536 216.604L487.049 216.801ZM487.126 217.459L485.633 217.608C485.641 217.679 485.645 217.731 485.648 217.763L487.143 217.636L488.637 217.508C488.633 217.459 488.627 217.392 488.619 217.31L487.126 217.459ZM487.143 217.636L485.648 217.763C485.65 217.785 485.651 217.795 485.651 217.799L487.146 217.683L488.642 217.566C488.641 217.549 488.639 217.527 488.637 217.508L487.143 217.636ZM487.146 217.683L485.651 217.8C485.651 217.803 485.652 217.805 485.652 217.809L487.147 217.695L488.643 217.582C488.643 217.579 488.642 217.573 488.642 217.565L487.146 217.683ZM487.147 217.695L485.652 217.809C485.656 217.865 485.663 217.914 485.67 217.955C485.677 217.996 485.685 218.031 485.692 218.059C485.699 218.088 485.706 218.111 485.711 218.128C485.716 218.145 485.72 218.158 485.722 218.164C485.723 218.165 485.723 218.167 485.723 218.167C485.724 218.168 485.724 218.169 485.724 218.169C485.724 218.17 485.723 218.167 485.723 218.165C485.722 218.162 485.72 218.157 485.718 218.15C485.716 218.144 485.713 218.135 485.71 218.124C485.707 218.113 485.703 218.099 485.698 218.082C485.694 218.065 485.689 218.045 485.683 218.021C485.678 217.997 485.672 217.968 485.667 217.935C485.662 217.901 485.656 217.861 485.653 217.814L487.148 217.699L488.644 217.584C488.64 217.538 488.635 217.497 488.63 217.463C488.624 217.43 488.619 217.401 488.613 217.377C488.608 217.353 488.603 217.332 488.599 217.315C488.594 217.299 488.59 217.284 488.587 217.273C488.583 217.262 488.581 217.253 488.578 217.246C488.576 217.239 488.575 217.234 488.574 217.231C488.573 217.229 488.572 217.226 488.572 217.227C488.572 217.227 488.572 217.227 488.572 217.227C488.572 217.227 488.572 217.228 488.573 217.228C488.573 217.229 488.573 217.23 488.574 217.231C488.575 217.237 488.58 217.249 488.584 217.266C488.589 217.282 488.596 217.306 488.603 217.333C488.61 217.361 488.618 217.396 488.625 217.437C488.632 217.478 488.639 217.526 488.643 217.582L487.147 217.695ZM487.148 217.699H485.648V217.7H487.148H488.648V217.699H487.148ZM487.148 217.7L485.653 217.59C485.674 217.301 485.782 216.989 486.011 216.722C486.201 216.501 486.407 216.392 486.505 216.345C486.686 216.259 486.845 216.231 486.858 216.229C486.904 216.22 486.941 216.215 486.953 216.213C486.97 216.211 486.984 216.209 486.99 216.209C487.004 216.207 487.014 216.206 487.016 216.206C487.018 216.206 487.02 216.206 487.02 216.206C487.021 216.206 487.022 216.206 487.022 216.206C487.022 216.206 487.021 216.206 487.021 216.206C487.02 216.206 487.02 216.206 487.019 216.206C487.016 216.206 487.014 216.206 487.01 216.207C487.002 216.207 486.991 216.208 486.975 216.209C486.913 216.214 486.79 216.222 486.543 216.24L486.649 217.736L486.756 219.233C487.003 219.215 487.128 219.206 487.193 219.201C487.223 219.199 487.244 219.197 487.258 219.196C487.26 219.196 487.281 219.195 487.304 219.192C487.311 219.191 487.325 219.19 487.342 219.188C487.356 219.186 487.392 219.181 487.439 219.172C487.452 219.169 487.611 219.141 487.792 219.055C487.889 219.009 488.096 218.899 488.286 218.678C488.515 218.412 488.623 218.099 488.644 217.811L487.148 217.7ZM486.649 217.736L486.755 219.233L487.254 219.197L487.148 217.701L487.043 216.205L486.544 216.24L486.649 217.736ZM487.148 217.701L485.651 217.784L485.652 217.802L487.149 217.719L488.647 217.636L488.646 217.618L487.148 217.701ZM487.149 217.719H485.649V254.298H487.149H488.649V217.719H487.149ZM487.149 254.298L485.905 255.136L494.781 268.308L496.025 267.47L497.269 266.631L488.393 253.46L487.149 254.298ZM496.025 267.47L494.783 268.311L494.869 268.438L496.111 267.597L497.353 266.756L497.268 266.629L496.025 267.47ZM496.111 267.597H494.611V280.618H496.111H497.611V267.597H496.111ZM496.111 280.618L494.856 279.798L494.775 279.922L496.03 280.742L497.286 281.563L497.367 281.439L496.111 280.618ZM496.03 280.742L496.848 279.485L496.429 279.212L495.611 280.47L494.794 281.727L495.212 282L496.03 280.742ZM495.611 280.47L494.79 281.725L495.208 281.998L496.029 280.743L496.85 279.488L496.433 279.214L495.611 280.47ZM496.029 280.743L494.688 280.072L494.687 280.074L496.028 280.745L497.37 281.416L497.371 281.414L496.029 280.743ZM496.028 280.745L494.776 279.92C494.784 279.907 494.792 279.896 494.798 279.886C494.805 279.877 494.811 279.868 494.817 279.861C494.827 279.847 494.836 279.835 494.841 279.828C494.847 279.821 494.851 279.816 494.852 279.814C494.853 279.813 494.853 279.813 494.853 279.813C494.854 279.813 494.854 279.812 494.854 279.812C494.854 279.812 494.854 279.812 494.854 279.812C494.854 279.812 494.853 279.813 494.853 279.814C494.851 279.815 494.848 279.82 494.844 279.825C494.84 279.83 494.834 279.838 494.827 279.847C494.814 279.864 494.795 279.891 494.773 279.923L496.025 280.749L497.277 281.575C497.257 281.607 497.238 281.632 497.225 281.649C497.219 281.658 497.213 281.665 497.209 281.67C497.206 281.675 497.202 281.679 497.201 281.68C497.201 281.681 497.2 281.681 497.201 281.681C497.201 281.681 497.201 281.68 497.202 281.679C497.204 281.677 497.209 281.671 497.214 281.664C497.22 281.656 497.229 281.645 497.239 281.63C497.245 281.623 497.251 281.614 497.258 281.604C497.265 281.594 497.273 281.583 497.281 281.57L496.028 280.745ZM496.025 280.749L494.773 279.924C494.765 279.936 494.759 279.945 494.754 279.952C494.75 279.959 494.746 279.965 494.744 279.969C494.742 279.972 494.74 279.975 494.74 279.977C494.739 279.977 494.739 279.977 494.739 279.977C494.739 279.978 494.739 279.978 494.739 279.978C494.739 279.978 494.739 279.978 494.739 279.977C494.741 279.975 494.751 279.957 494.766 279.935L496.016 280.765L497.265 281.595C497.284 281.566 497.299 281.542 497.303 281.534C497.304 281.533 497.306 281.53 497.305 281.531C497.305 281.531 497.305 281.532 497.305 281.532C497.304 281.533 497.304 281.534 497.303 281.535C497.301 281.538 497.298 281.543 497.294 281.549C497.291 281.555 497.285 281.563 497.278 281.574L496.025 280.749ZM496.016 280.765L494.766 279.935C494.761 279.942 494.751 279.957 494.735 279.981L495.978 280.821L497.22 281.662C497.237 281.637 497.253 281.613 497.265 281.595L496.016 280.765ZM495.978 280.821L494.735 279.98C494.71 280.018 494.666 280.081 494.605 280.169L495.831 281.032L497.057 281.896C497.123 281.803 497.179 281.723 497.22 281.662L495.978 280.821ZM495.831 281.032L494.605 280.169C494.489 280.333 494.315 280.573 494.092 280.861L495.279 281.778L496.466 282.695C496.72 282.367 496.919 282.092 497.057 281.896L495.831 281.032ZM495.279 281.778L494.092 280.861C493.644 281.441 493.002 282.214 492.22 282.99L493.277 284.055L494.334 285.119C495.234 284.226 495.963 283.347 496.466 282.695L495.279 281.778ZM493.277 284.055L492.22 282.99C490.611 284.588 488.6 286.015 486.597 286.12L486.676 287.618L486.755 289.116C489.927 288.949 492.626 286.816 494.334 285.119L493.277 284.055ZM486.676 287.618L486.597 286.12C485.05 286.202 483.171 285.745 481.612 285.226L481.139 286.649L480.665 288.073C482.313 288.621 484.629 289.228 486.755 289.116L486.676 287.618ZM481.139 286.649L481.612 285.226C480.848 284.972 480.186 284.711 479.716 284.514L479.137 285.897L478.557 287.281C479.079 287.5 479.812 287.789 480.665 288.073L481.139 286.649ZM479.137 285.897L479.716 284.514C479.48 284.415 479.294 284.334 479.172 284.278L478.555 285.646L477.938 287.013C478.088 287.081 478.298 287.173 478.557 287.281L479.137 285.897ZM478.555 285.646L479.172 284.278C479.185 284.284 479.196 284.29 479.202 284.292C479.207 284.295 479.21 284.297 479.208 284.295C479.207 284.295 479.205 284.294 479.202 284.292C479.199 284.291 479.195 284.289 479.191 284.287C479.181 284.282 479.166 284.275 479.147 284.266L478.528 285.633L477.909 286.999C477.895 286.993 477.884 286.987 477.879 286.985C477.876 286.984 477.874 286.983 477.874 286.982C477.874 286.982 477.873 286.982 477.875 286.983C477.877 286.984 477.885 286.988 477.894 286.992C477.904 286.997 477.919 287.005 477.938 287.013L478.555 285.646ZM478.528 285.633L478.031 284.218L467.527 287.91L468.024 289.325L468.522 290.74L479.026 287.048L478.528 285.633ZM468.024 289.325L467.545 287.904L467.464 287.931L467.943 289.353L468.423 290.774L468.504 290.746L468.024 289.325ZM467.943 289.353V287.853H441.331V289.353V290.853H467.943V289.353ZM441.331 289.353L442.437 288.34L442.289 288.177L441.183 289.19L440.076 290.203L440.225 290.366L441.331 289.353ZM441.183 289.19L442.288 288.177L435.928 281.239L434.822 282.253L433.717 283.267L440.077 290.204L441.183 289.19ZM434.822 282.253L435.931 281.242L435.8 281.099L434.691 282.109L433.583 283.12L433.714 283.263L434.822 282.253ZM434.691 282.109H436.191V273.742H434.691H433.191V282.109H434.691ZM434.691 273.742V272.242H430.198V273.742V275.242H434.691V273.742ZM430.198 273.742H428.698V280.126H430.198H431.698V273.742H430.198ZM430.198 280.126L429.66 281.526L433.097 282.848L433.636 281.448L434.174 280.048L430.737 278.726L430.198 280.126ZM433.636 281.448L433.098 282.848L433.52 283.011L434.058 281.61L434.596 280.21L434.174 280.048L433.636 281.448ZM434.058 281.61L432.611 281.215L432.492 281.65L433.938 282.046L435.385 282.442L435.504 282.006L434.058 281.61ZM433.938 282.046L432.491 281.651L431.709 284.517L433.156 284.912L434.603 285.307L435.386 282.441L433.938 282.046ZM433.156 284.912L432.211 286.076L436.585 289.629L437.53 288.465L438.476 287.301L434.102 283.748L433.156 284.912ZM437.53 288.465L436.583 289.628L436.767 289.778L437.715 288.615L438.662 287.452L438.478 287.302L437.53 288.465ZM437.715 288.615H436.215V294.088H437.715H439.215V288.615H437.715ZM437.715 294.088L437.088 292.725L436.797 292.859L437.424 294.222L438.05 295.585L438.341 295.451L437.715 294.088ZM437.424 294.222L436.795 292.86L429.28 296.328L429.908 297.69L430.537 299.052L438.052 295.584L437.424 294.222ZM429.908 297.69L429.282 296.327L429.127 296.399L429.753 297.762L430.379 299.125L430.534 299.054L429.908 297.69ZM429.753 297.762L430.08 296.298L429.914 296.261L429.587 297.725L429.26 299.188L429.426 299.226L429.753 297.762ZM429.587 297.725L429.92 296.262L400.722 289.613L400.389 291.075L400.056 292.538L429.254 299.187L429.587 297.725ZM400.389 291.075L400.723 289.613L400.334 289.524L400 290.986L399.666 292.449L400.054 292.537L400.389 291.075ZM400 290.986H401.5V286.932H400H398.5V290.986H400ZM400 286.932L401.132 287.916L401.255 287.774L400.123 286.79L398.991 285.806L398.868 285.948L400 286.932ZM400.123 286.79L401.255 287.774L407.036 281.126L405.904 280.142L404.772 279.157L398.991 285.806L400.123 286.79ZM405.904 280.142L407.036 281.126L407.186 280.954L406.054 279.97L404.922 278.986L404.772 279.157L405.904 280.142ZM406.054 279.97V281.47H414.42V279.97V278.47H406.054V279.97ZM414.42 279.97L415.604 280.891L419.502 275.88L418.318 274.959L417.134 274.038L413.236 279.049L414.42 279.97ZM418.318 274.959L419.505 275.876L419.655 275.683L418.468 274.766L417.281 273.848L417.131 274.042L418.318 274.959ZM418.468 274.766V276.266H420.727V274.766V273.266H418.468V274.766ZM420.727 274.766L422.047 275.477L425.938 268.251L424.617 267.54L423.296 266.829L419.406 274.054L420.727 274.766ZM424.617 267.54L426.004 268.113L447.95 214.982L446.563 214.409L445.177 213.837L423.231 266.967L424.617 267.54ZM446.563 214.409L448.029 214.729C448.028 214.732 448.028 214.734 448.028 214.733C448.028 214.732 448.029 214.727 448.031 214.722L446.565 214.4L445.1 214.079C445.101 214.077 445.101 214.075 445.101 214.077C445.1 214.078 445.099 214.083 445.098 214.089L446.563 214.409ZM446.565 214.4L448.03 214.722C448.035 214.702 448.044 214.662 448.06 214.595L446.601 214.249L445.141 213.903C445.126 213.966 445.111 214.029 445.1 214.078L446.565 214.4ZM446.601 214.249L448.06 214.595C448.087 214.483 448.13 214.312 448.191 214.09L446.745 213.69L445.299 213.291C445.229 213.547 445.176 213.754 445.141 213.903L446.601 214.249ZM446.745 213.69L448.191 214.09C448.313 213.648 448.507 213.01 448.794 212.241L447.389 211.717L445.983 211.193C445.662 212.054 445.441 212.776 445.299 213.291L446.745 213.69ZM447.389 211.717L448.794 212.241C449.369 210.7 450.307 208.651 451.761 206.608L450.539 205.738L449.317 204.868C447.673 207.178 446.623 209.477 445.983 211.193L447.389 211.717ZM450.539 205.738L451.761 206.608C454.653 202.546 459.578 198.5 467.858 198.5V197V195.5C458.4 195.5 452.64 200.201 449.317 204.868L450.539 205.738ZM466.991 204.517L466.991 203.017C461.507 203.017 457.873 206.133 455.707 209.02L456.907 209.92L458.107 210.82C459.952 208.361 462.796 206.017 466.991 206.017L466.991 204.517ZM456.907 209.92L455.707 209.02C454.622 210.467 453.866 211.902 453.381 212.971L454.747 213.591L456.113 214.211C456.535 213.281 457.187 212.048 458.107 210.82L456.907 209.92ZM454.747 213.591L453.381 212.971C453.138 213.508 452.959 213.96 452.839 214.284L454.246 214.804L455.653 215.323C455.751 215.059 455.903 214.674 456.113 214.211L454.747 213.591ZM454.246 214.804L452.839 214.284C452.78 214.445 452.734 214.576 452.702 214.672L454.124 215.148L455.546 215.625C455.568 215.56 455.604 215.457 455.653 215.323L454.246 214.804ZM454.124 215.148L452.702 214.672C452.684 214.725 452.667 214.778 452.665 214.785L454.094 215.242L455.522 215.699C455.525 215.691 455.528 215.683 455.53 215.677C455.532 215.67 455.533 215.665 455.535 215.659C455.539 215.647 455.542 215.636 455.546 215.625L454.124 215.148ZM454.094 215.242L452.665 214.785C452.675 214.753 452.685 214.727 452.691 214.711C452.694 214.703 452.697 214.697 452.698 214.692C452.699 214.69 452.7 214.689 452.7 214.687C452.701 214.686 452.701 214.686 452.701 214.686C452.701 214.685 452.7 214.688 452.699 214.691C452.697 214.695 452.694 214.702 452.691 214.71C452.688 214.719 452.684 214.73 452.679 214.744C452.674 214.757 452.668 214.774 452.662 214.793L454.091 215.25L455.519 215.707C455.514 215.725 455.508 215.741 455.503 215.754C455.499 215.767 455.495 215.778 455.492 215.786C455.489 215.794 455.486 215.8 455.485 215.803C455.484 215.806 455.483 215.808 455.484 215.807C455.484 215.806 455.485 215.803 455.487 215.798C455.489 215.793 455.492 215.786 455.495 215.777C455.502 215.76 455.512 215.733 455.522 215.699L454.094 215.242ZM454.091 215.25L452.708 214.669L433.637 260.036L435.02 260.617L436.402 261.198L455.474 215.831L454.091 215.25ZM435.02 260.617L433.637 260.036L433.345 260.73L434.728 261.312L436.11 261.893L436.402 261.199L435.02 260.617ZM434.728 261.312V262.812H438.151V261.312V259.812H434.728V261.312ZM438.151 261.312L439.572 261.793L439.687 261.453L438.267 260.972L436.846 260.49L436.731 260.83L438.151 261.312ZM438.267 260.972L439.69 261.446L439.691 261.443L438.268 260.969L436.845 260.494L436.844 260.497L438.267 260.972ZM438.268 260.969L439.686 261.455C439.684 261.462 439.683 261.467 439.682 261.469C439.68 261.472 439.68 261.475 439.679 261.476C439.679 261.477 439.679 261.477 439.679 261.477C439.679 261.477 439.679 261.477 439.679 261.477C439.679 261.476 439.679 261.476 439.68 261.475C439.681 261.471 439.685 261.459 439.691 261.444L438.272 260.955L436.854 260.466C436.857 260.457 436.86 260.45 436.86 260.451C436.86 260.451 436.86 260.451 436.859 260.452C436.859 260.453 436.858 260.455 436.858 260.457C436.857 260.459 436.856 260.462 436.854 260.466C436.853 260.47 436.851 260.475 436.849 260.482L438.268 260.969ZM438.272 260.955L439.691 261.444C439.69 261.445 439.69 261.445 439.691 261.443C439.692 261.441 439.693 261.438 439.694 261.433C439.697 261.425 439.702 261.412 439.707 261.397L438.291 260.902L436.875 260.407C436.872 260.416 436.869 260.424 436.866 260.433C436.864 260.44 436.859 260.453 436.854 260.466L438.272 260.955ZM438.291 260.902L439.707 261.397C439.726 261.342 439.746 261.284 439.775 261.203L438.364 260.694L436.953 260.186C436.917 260.285 436.889 260.369 436.875 260.407L438.291 260.902ZM438.364 260.694L439.775 261.203C439.837 261.032 439.93 260.78 440.052 260.465L438.652 259.925L437.253 259.384C437.123 259.721 437.022 259.994 436.953 260.186L438.364 260.694ZM438.652 259.925L440.052 260.465C440.295 259.836 440.649 258.967 441.09 258.011L439.729 257.382L438.367 256.753C437.892 257.78 437.513 258.711 437.253 259.384L438.652 259.925ZM439.729 257.382L441.09 258.011C442.003 256.036 443.185 253.923 444.418 252.679L443.353 251.623L442.287 250.567C440.663 252.206 439.302 254.728 438.367 256.753L439.729 257.382ZM443.353 251.623L444.418 252.679C445.494 251.593 447.288 250.48 448.956 249.596L448.254 248.271L447.551 246.945C445.839 247.853 443.701 249.14 442.287 250.567L443.353 251.623ZM448.254 248.271L448.956 249.596C449.765 249.167 450.498 248.815 451.028 248.572L450.401 247.209L449.775 245.846C449.206 246.108 448.421 246.484 447.551 246.945L448.254 248.271ZM450.401 247.209L451.028 248.572C451.29 248.451 451.502 248.358 451.649 248.294L451.05 246.919L450.45 245.544C450.293 245.612 450.061 245.714 449.775 245.846L450.401 247.209ZM451.05 246.919L451.649 248.294C451.738 248.255 451.78 248.237 451.812 248.223L451.225 246.843L450.637 245.463C450.59 245.483 450.514 245.516 450.45 245.544L451.05 246.919ZM451.225 246.843L451.812 248.223C451.812 248.223 451.812 248.223 451.817 248.221C451.818 248.22 451.819 248.22 451.821 248.219C451.823 248.219 451.825 248.218 451.828 248.217C451.832 248.215 451.841 248.211 451.852 248.207L451.27 246.824L450.688 245.442C450.693 245.439 450.696 245.438 450.694 245.439C450.694 245.439 450.693 245.439 450.691 245.44C450.689 245.441 450.687 245.442 450.685 245.443C450.674 245.447 450.657 245.454 450.637 245.463L451.225 246.843ZM451.27 246.824L451.853 248.206C451.884 248.193 451.908 248.182 451.915 248.178C451.916 248.178 451.917 248.177 451.917 248.177C451.918 248.177 451.918 248.177 451.918 248.177C451.917 248.177 451.915 248.179 451.911 248.18C451.908 248.182 451.902 248.185 451.893 248.188C451.886 248.192 451.874 248.197 451.859 248.203L451.28 246.819L450.702 245.435C450.686 245.442 450.674 245.447 450.665 245.451C450.656 245.455 450.649 245.458 450.645 245.46C450.641 245.462 450.638 245.464 450.637 245.464C450.636 245.465 450.636 245.465 450.636 245.465C450.635 245.465 450.636 245.465 450.636 245.465C450.635 245.465 450.636 245.465 450.636 245.465C450.64 245.463 450.66 245.453 450.686 245.442L451.27 246.824ZM451.28 246.819L451.848 248.208C451.829 248.216 451.812 248.222 451.797 248.228C451.782 248.233 451.769 248.237 451.759 248.241C451.748 248.245 451.739 248.247 451.732 248.25C451.725 248.252 451.719 248.254 451.716 248.254C451.715 248.255 451.714 248.255 451.713 248.255C451.713 248.256 451.713 248.256 451.713 248.256C451.713 248.256 451.713 248.255 451.713 248.255C451.714 248.255 451.716 248.255 451.718 248.254C451.72 248.253 451.723 248.252 451.727 248.251C451.731 248.25 451.737 248.248 451.743 248.246C451.75 248.244 451.758 248.241 451.768 248.238C451.778 248.235 451.79 248.23 451.805 248.225C451.819 248.219 451.838 248.212 451.86 248.203L451.283 246.818L450.706 245.434C450.728 245.425 450.747 245.417 450.761 245.412C450.776 245.407 450.789 245.402 450.798 245.399C450.808 245.396 450.816 245.393 450.822 245.391C450.829 245.389 450.834 245.387 450.838 245.386C450.842 245.385 450.845 245.384 450.847 245.383C450.849 245.383 450.851 245.382 450.851 245.382C450.852 245.382 450.852 245.382 450.852 245.382C450.852 245.382 450.852 245.382 450.852 245.382C450.852 245.382 450.852 245.382 450.852 245.382C450.852 245.382 450.852 245.382 450.852 245.382C450.852 245.382 450.852 245.382 450.852 245.382C450.852 245.382 450.851 245.382 450.851 245.382C450.851 245.382 450.849 245.382 450.848 245.383C450.844 245.384 450.838 245.386 450.831 245.388C450.824 245.39 450.815 245.393 450.804 245.397C450.793 245.401 450.779 245.405 450.764 245.411C450.75 245.416 450.732 245.423 450.713 245.431L451.28 246.819ZM451.283 246.818V248.318H451.284V246.818V245.318H451.283V246.818ZM451.284 246.818L452.345 245.758L452.344 245.757L451.283 246.817L450.223 247.878L450.224 247.879L451.284 246.818ZM451.283 246.817L451.856 248.204L452.064 248.118L451.491 246.731L450.918 245.345L450.71 245.431L451.283 246.817ZM451.491 246.731L452.91 247.219L452.983 247.007L451.564 246.519L450.146 246.031L450.073 246.243L451.491 246.731ZM451.564 246.519L452.991 246.982C452.999 246.957 453.006 246.935 453.011 246.917C453.015 246.9 453.019 246.884 453.022 246.872C453.025 246.86 453.027 246.85 453.029 246.842C453.031 246.834 453.032 246.828 453.033 246.824C453.034 246.819 453.035 246.815 453.035 246.814C453.036 246.812 453.036 246.81 453.036 246.811C453.036 246.811 453.036 246.811 453.036 246.812C453.035 246.812 453.035 246.813 453.035 246.814C453.035 246.816 453.034 246.819 453.033 246.822C453.031 246.836 453.025 246.862 453.017 246.894C453.008 246.926 452.997 246.967 452.98 247.012L451.565 246.515L450.15 246.017C450.118 246.109 450.102 246.183 450.096 246.212C450.095 246.215 450.095 246.218 450.094 246.221C450.094 246.222 450.094 246.224 450.094 246.224C450.094 246.225 450.094 246.223 450.094 246.222C450.094 246.22 450.095 246.217 450.096 246.212C450.098 246.205 450.101 246.187 450.107 246.164C450.11 246.152 450.114 246.137 450.118 246.12C450.123 246.102 450.13 246.08 450.138 246.055L451.564 246.519ZM451.565 246.515L452.98 247.012C452.975 247.028 452.97 247.041 452.967 247.049C452.964 247.058 452.961 247.064 452.96 247.068C452.959 247.07 452.958 247.071 452.958 247.072C452.958 247.073 452.957 247.074 452.957 247.074C452.957 247.074 452.957 247.074 452.957 247.074C452.957 247.074 452.957 247.074 452.957 247.074C452.957 247.073 452.957 247.073 452.957 247.073C452.958 247.073 452.958 247.072 452.958 247.071C452.962 247.061 452.972 247.036 452.984 247.004L451.572 246.497L450.16 245.99C450.169 245.966 450.177 245.948 450.178 245.944C450.178 245.944 450.178 245.944 450.178 245.944C450.178 245.944 450.178 245.944 450.178 245.944C450.178 245.945 450.178 245.945 450.178 245.945C450.177 245.947 450.176 245.95 450.174 245.955C450.172 245.96 450.169 245.967 450.165 245.977C450.162 245.986 450.156 246 450.15 246.017L451.565 246.515ZM451.572 246.497L452.984 247.004C452.987 246.997 452.989 246.989 452.991 246.985C452.993 246.979 452.994 246.975 452.996 246.971C452.999 246.963 453.002 246.955 453.005 246.947L451.601 246.419L450.197 245.891C450.178 245.94 450.161 245.989 450.16 245.99L451.572 246.497ZM451.601 246.419L453.005 246.947C453.023 246.898 453.057 246.811 453.108 246.687L451.723 246.113L450.337 245.539C450.278 245.682 450.23 245.801 450.197 245.891L451.601 246.419ZM451.723 246.113L453.108 246.687C453.206 246.453 453.359 246.106 453.574 245.684L452.237 245.003L450.901 244.322C450.646 244.822 450.46 245.242 450.337 245.539L451.723 246.113ZM452.237 245.003L453.574 245.684C454.007 244.835 454.676 243.707 455.62 242.587L454.473 241.62L453.326 240.653C452.199 241.991 451.409 243.324 450.901 244.322L452.237 245.003ZM454.473 241.62L455.62 242.587C457.497 240.36 460.379 238.238 464.679 238.238V236.738V235.238C459.24 235.238 455.585 237.972 453.326 240.653L454.473 241.62ZM464.679 236.738L464.679 238.238C469.172 238.238 472.578 240.029 474.895 241.856L475.824 240.679L476.753 239.501C474.063 237.379 470.021 235.238 464.679 235.238L464.679 236.738ZM475.824 240.679L474.895 241.856C476.055 242.771 476.928 243.685 477.506 244.365L478.648 243.393L479.791 242.42C479.111 241.622 478.098 240.561 476.753 239.501L475.824 240.679ZM478.648 243.393L477.506 244.365C477.795 244.704 478.008 244.981 478.143 245.166L479.354 244.28L480.564 243.394C480.388 243.154 480.13 242.819 479.791 242.42L478.648 243.393ZM479.354 244.28L478.143 245.166C478.213 245.262 478.262 245.332 478.29 245.372L479.527 244.524L480.765 243.677C480.717 243.607 480.649 243.511 480.564 243.394L479.354 244.28ZM479.527 244.524L478.279 245.356L478.332 245.436L479.58 244.604L480.828 243.771L480.775 243.692L479.527 244.524ZM479.58 244.604L478.319 245.415L479.239 246.847L480.501 246.035L481.763 245.224L480.842 243.792L479.58 244.604ZM480.501 246.035H482.001V218.271H480.501H479.001V246.035H480.501ZM480.501 218.271L481.976 217.997L481.968 217.955L480.493 218.229L479.018 218.504L479.026 218.546L480.501 218.271ZM480.493 218.229L480.238 216.751L479.746 216.836L480.001 218.314L480.256 219.793L480.748 219.708L480.493 218.229ZM480.001 218.314L480.258 219.792C480.504 219.75 480.628 219.728 480.69 219.717C480.72 219.712 480.739 219.709 480.751 219.706C480.752 219.706 480.772 219.703 480.793 219.698C480.8 219.697 480.814 219.694 480.832 219.69C480.844 219.687 480.888 219.677 480.943 219.66C480.971 219.651 481.025 219.633 481.092 219.604C481.146 219.58 481.286 219.517 481.437 219.394C481.609 219.255 481.846 218.997 481.947 218.596C481.994 218.413 481.997 218.254 481.991 218.143C481.988 218.09 481.982 218.047 481.979 218.02C481.977 218.009 481.975 217.993 481.974 217.987C481.973 217.982 481.972 217.976 481.972 217.975L480.493 218.229L479.015 218.482C479.015 218.481 479.014 218.475 479.013 218.47C479.012 218.464 479.009 218.448 479.008 218.437C479.004 218.41 478.999 218.367 478.996 218.314C478.989 218.203 478.993 218.044 479.039 217.861C479.14 217.46 479.377 217.202 479.549 217.063C479.7 216.94 479.84 216.877 479.895 216.853C479.961 216.824 480.016 216.806 480.043 216.798C480.098 216.78 480.142 216.77 480.153 216.768C480.171 216.763 480.185 216.761 480.191 216.759C480.211 216.755 480.227 216.752 480.22 216.754C480.217 216.754 480.205 216.756 480.174 216.762C480.113 216.773 479.99 216.794 479.744 216.837L480.001 218.314ZM480.493 218.229H481.993V218.228H480.493H478.993V218.229H480.493ZM480.493 218.228L481.835 217.557L481.834 217.555L480.492 218.226L479.151 218.896L479.152 218.898L480.493 218.228ZM480.492 218.226L481.97 217.966C481.972 217.983 481.975 217.998 481.977 218.01C481.979 218.023 481.98 218.035 481.981 218.044C481.983 218.063 481.985 218.079 481.986 218.087C481.987 218.096 481.987 218.103 481.987 218.105C481.987 218.106 481.987 218.106 481.987 218.106C481.987 218.105 481.987 218.104 481.987 218.102C481.987 218.099 481.986 218.092 481.985 218.084C481.985 218.076 481.984 218.065 481.982 218.052C481.979 218.027 481.975 217.992 481.968 217.951L480.491 218.217L479.015 218.482C479.008 218.443 479.004 218.411 479.001 218.387C479 218.375 478.999 218.365 478.998 218.357C478.997 218.35 478.997 218.344 478.997 218.341C478.997 218.34 478.996 218.34 478.996 218.339C478.996 218.339 478.996 218.339 478.996 218.339C478.996 218.338 478.996 218.34 478.997 218.341C478.997 218.343 478.997 218.351 478.998 218.36C478.999 218.37 479.001 218.386 479.003 218.405C479.004 218.415 479.006 218.427 479.008 218.44C479.009 218.453 479.012 218.468 479.015 218.485L480.492 218.226ZM480.491 218.217L481.967 217.95C481.967 217.949 481.964 217.929 481.96 217.909L480.485 218.185L479.011 218.46C479.011 218.463 479.012 218.466 479.013 218.469C479.013 218.471 479.013 218.473 479.014 218.475C479.014 218.477 479.015 218.48 479.015 218.483L480.491 218.217ZM480.485 218.185L481.96 217.909C481.952 217.869 481.939 217.805 481.933 217.772L480.462 218.067L478.991 218.363C478.996 218.389 479.002 218.416 479.005 218.432C479.007 218.441 479.008 218.447 479.009 218.453C479.01 218.455 479.01 218.457 479.011 218.459C479.011 218.46 479.011 218.46 479.011 218.46L480.485 218.185ZM480.462 218.067L481.933 217.772C481.91 217.657 481.875 217.495 481.829 217.293L480.367 217.631L478.906 217.969C478.945 218.14 478.973 218.274 478.991 218.363L480.462 218.067ZM480.367 217.631L481.829 217.293C481.735 216.89 481.592 216.324 481.384 215.648L479.95 216.09L478.517 216.531C478.7 217.128 478.826 217.624 478.906 217.969L480.367 217.631ZM479.95 216.09L481.384 215.648C480.97 214.306 480.294 212.496 479.24 210.667L477.94 211.416L476.641 212.165C477.55 213.744 478.147 215.332 478.517 216.531L479.95 216.09ZM477.94 211.416L479.24 210.667C477.14 207.022 473.343 203.017 466.991 203.017L466.991 204.517L466.991 206.017C471.837 206.017 474.818 209 476.641 212.165L477.94 211.416Z" fill="#1DC9A5"/>
<path d="M278.84 261.04C278.12 267.28 275.92 272.6 272.24 277C268.56 281.4 263.56 284.76 257.24 287.08C250.92 289.4 243.4 290.56 234.68 290.56C227.4 290.56 220.72 289.72 214.64 288.04C208.64 286.36 203.44 283.84 199.04 280.48C194.72 277.12 191.36 272.96 188.96 268C186.56 262.96 185.36 257.08 185.36 250.36C185.36 243.64 186.56 237.76 188.96 232.72C191.36 227.68 194.72 223.48 199.04 220.12C203.44 216.68 208.64 214.12 214.64 212.44C220.72 210.68 227.4 209.8 234.68 209.8C243.4 209.8 250.92 211 257.24 213.4C263.64 215.8 268.68 219.24 272.36 223.72C276.04 228.12 278.2 233.48 278.84 239.8H263C261.96 236.44 260.2 233.56 257.72 231.16C255.32 228.68 252.2 226.8 248.36 225.52C244.52 224.24 239.96 223.6 234.68 223.6C228.12 223.6 222.36 224.64 217.4 226.72C212.44 228.72 208.6 231.72 205.88 235.72C203.16 239.64 201.8 244.52 201.8 250.36C201.8 256.12 203.16 260.96 205.88 264.88C208.6 268.8 212.44 271.8 217.4 273.88C222.36 275.88 228.12 276.88 234.68 276.88C239.96 276.88 244.48 276.24 248.24 274.96C252.08 273.68 255.2 271.84 257.6 269.44C260.08 267.04 261.88 264.24 263 261.04H278.84ZM293.572 205.36H309.172V289H293.572V205.36ZM379.31 269.2H394.43C393.79 273.28 392.07 276.92 389.27 280.12C386.55 283.32 382.83 285.84 378.11 287.68C373.39 289.52 367.63 290.44 360.83 290.44C353.23 290.44 346.51 289.24 340.67 286.84C334.83 284.36 330.27 280.8 326.99 276.16C323.71 271.52 322.07 265.92 322.07 259.36C322.07 252.8 323.67 247.2 326.87 242.56C330.07 237.84 334.51 234.24 340.19 231.76C345.95 229.28 352.67 228.04 360.35 228.04C368.19 228.04 374.71 229.28 379.91 231.76C385.11 234.24 388.95 238 391.43 243.04C393.99 248 395.07 254.36 394.67 262.12H337.79C338.19 265.16 339.31 267.92 341.15 270.4C343.07 272.88 345.63 274.84 348.83 276.28C352.11 277.72 355.99 278.44 360.47 278.44C365.43 278.44 369.55 277.6 372.83 275.92C376.19 274.16 378.35 271.92 379.31 269.2ZM359.63 239.92C353.87 239.92 349.19 241.2 345.59 243.76C341.99 246.24 339.67 249.32 338.63 253H379.19C378.79 249 376.87 245.84 373.43 243.52C370.07 241.12 365.47 239.92 359.63 239.92Z" fill="#313131"/>
<path d="M504.2 229.36H519.8V289H504.2V229.36ZM547.52 228.04C551.2 228.04 554.6 228.52 557.72 229.48C560.84 230.44 563.56 231.92 565.88 233.92C568.2 235.92 570 238.48 571.28 241.6C572.56 244.64 573.2 248.28 573.2 252.52V289H557.6V255.28C557.6 250.24 556.36 246.56 553.88 244.24C551.48 241.84 547.52 240.64 542 240.64C537.84 240.64 534.08 241.44 530.72 243.04C527.36 244.64 524.64 246.68 522.56 249.16C520.48 251.56 519.28 254.08 518.96 256.72L518.84 250.6C519.24 247.8 520.16 245.08 521.6 242.44C523.04 239.8 524.96 237.4 527.36 235.24C529.84 233 532.76 231.24 536.12 229.96C539.48 228.68 543.28 228.04 547.52 228.04ZM603.243 263.8V251.08H638.763C643.003 251.08 646.363 249.96 648.843 247.72C651.323 245.4 652.563 242.2 652.563 238.12C652.563 233.88 651.323 230.64 648.843 228.4C646.363 226.16 643.003 225.04 638.763 225.04H605.163V289H589.203V211.36H637.323C641.643 211.36 645.683 211.88 649.443 212.92C653.283 213.96 656.603 215.56 659.403 217.72C662.283 219.88 664.523 222.64 666.123 226C667.723 229.36 668.523 233.4 668.523 238.12C668.523 242.76 667.723 246.72 666.123 250C664.523 253.28 662.283 255.96 659.403 258.04C656.603 260.04 653.283 261.52 649.443 262.48C645.683 263.36 641.643 263.8 637.323 263.8H603.243ZM681.505 229.36H697.105V289H681.505V229.36ZM720.025 242.2C715.545 242.2 711.665 243.08 708.385 244.84C705.105 246.52 702.465 248.6 700.465 251.08C698.465 253.56 697.065 255.96 696.265 258.28L696.145 251.68C696.225 250.72 696.545 249.32 697.105 247.48C697.665 245.56 698.505 243.52 699.625 241.36C700.745 239.12 702.225 237 704.065 235C705.905 232.92 708.145 231.24 710.785 229.96C713.425 228.68 716.505 228.04 720.025 228.04V242.2ZM764.829 290.44C757.309 290.44 750.669 289.24 744.909 286.84C739.229 284.44 734.789 280.96 731.589 276.4C728.389 271.76 726.789 266.08 726.789 259.36C726.789 252.64 728.389 246.96 731.589 242.32C734.789 237.6 739.229 234.04 744.909 231.64C750.669 229.24 757.309 228.04 764.829 228.04C772.349 228.04 778.909 229.24 784.509 231.64C790.189 234.04 794.629 237.6 797.829 242.32C801.029 246.96 802.629 252.64 802.629 259.36C802.629 266.08 801.029 271.76 797.829 276.4C794.629 280.96 790.189 284.44 784.509 286.84C778.909 289.24 772.349 290.44 764.829 290.44ZM764.829 278.44C768.989 278.44 772.709 277.72 775.989 276.28C779.349 274.76 781.989 272.6 783.909 269.8C785.829 266.92 786.789 263.44 786.789 259.36C786.789 255.28 785.829 251.8 783.909 248.92C781.989 245.96 779.389 243.72 776.109 242.2C772.829 240.68 769.069 239.92 764.829 239.92C760.669 239.92 756.909 240.68 753.549 242.2C750.189 243.72 747.509 245.92 745.509 248.8C743.589 251.68 742.629 255.2 742.629 259.36C742.629 263.44 743.589 266.92 745.509 269.8C747.429 272.6 750.069 274.76 753.429 276.28C756.789 277.72 760.589 278.44 764.829 278.44Z" fill="#313131"/>
<path d="M807.125 211C808.812 219.25 812 222.438 820.25 224.125C812 225.812 808.812 229 807.125 237.25C805.438 229 802.25 225.812 794 224.125C802.25 222.438 805.438 219.25 807.125 211Z" fill="#1DC9A5"/>
<rect y="500" width="1000" height="500" fill="black"/>
<path d="M467.858 697V695.5V695.5V697ZM484.206 707.395L485.548 706.724V706.724L484.206 707.395ZM486.642 714.47L488.108 714.155V714.155L486.642 714.47ZM487.049 716.801L488.536 716.604L488.536 716.603L487.049 716.801ZM487.126 717.459L488.619 717.31V717.31L487.126 717.459ZM487.143 717.636L488.637 717.508L488.637 717.508L487.143 717.636ZM487.146 717.683L485.651 717.799L485.651 717.8L487.146 717.683ZM487.147 717.695L485.652 717.809L485.652 717.809L487.147 717.695ZM487.148 717.699H488.648V717.642L488.644 717.584L487.148 717.699ZM487.148 717.7L488.644 717.811L488.648 717.755V717.7H487.148ZM486.649 717.736L486.543 716.24L486.755 719.233L486.649 717.736ZM487.148 717.701L488.646 717.618L488.562 716.098L487.043 716.205L487.148 717.701ZM487.149 717.719H488.649V717.677L488.647 717.636L487.149 717.719ZM487.149 754.298H485.649V754.756L485.905 755.136L487.149 754.298ZM496.025 767.47L494.781 768.308L494.783 768.311L496.025 767.47ZM496.111 767.597H497.611V767.137L497.353 766.756L496.111 767.597ZM496.111 780.618L497.367 781.439L497.611 781.065V780.618H496.111ZM496.03 780.742L495.212 782L496.467 782.816L497.286 781.563L496.03 780.742ZM495.611 780.47L496.429 779.212L494.79 781.725L495.611 780.47ZM496.029 780.743L497.371 781.414L497.968 780.219L496.85 779.488L496.029 780.743ZM496.028 780.745L497.281 781.57L497.33 781.496L497.37 781.416L496.028 780.745ZM496.025 780.749L494.773 779.923L494.773 779.924L496.025 780.749ZM496.016 780.765L494.766 779.935L494.766 779.935L496.016 780.765ZM495.978 780.821L497.22 781.662L497.22 781.662L495.978 780.821ZM495.831 781.032L494.605 780.169V780.169L495.831 781.032ZM495.279 781.778L496.466 782.695H496.466L495.279 781.778ZM493.277 784.055L494.334 785.119L494.334 785.119L493.277 784.055ZM486.676 787.618L486.755 789.116H486.755L486.676 787.618ZM481.139 786.649L480.665 788.073L480.665 788.073L481.139 786.649ZM479.137 785.897L478.557 787.281L478.557 787.281L479.137 785.897ZM478.555 785.646L477.938 787.013L477.938 787.013L478.555 785.646ZM478.528 785.633L479.147 784.266L478.599 784.018L478.031 784.218L478.528 785.633ZM468.024 789.325L468.504 790.746L468.513 790.743L468.522 790.74L468.024 789.325ZM467.943 789.353V790.853H468.19L468.423 790.774L467.943 789.353ZM441.331 789.353L440.225 790.366L440.671 790.853H441.331V789.353ZM441.183 789.19L442.289 788.177L442.288 788.177L441.183 789.19ZM434.822 782.253L433.714 783.263L433.717 783.267L434.822 782.253ZM434.691 782.109H433.191V782.69L433.583 783.12L434.691 782.109ZM434.691 773.742H436.191V772.242H434.691V773.742ZM430.198 773.742V772.242H428.698V773.742H430.198ZM430.198 780.126H428.698V781.156L429.66 781.526L430.198 780.126ZM433.636 781.448L433.097 782.848L433.098 782.848L433.636 781.448ZM434.058 781.61L435.504 782.006L435.863 780.697L434.596 780.21L434.058 781.61ZM433.938 782.046L432.492 781.65L432.491 781.651L433.938 782.046ZM433.156 784.912L431.709 784.517L431.452 785.46L432.211 786.076L433.156 784.912ZM437.53 788.465L438.478 787.302L438.476 787.301L437.53 788.465ZM437.715 788.615H439.215V787.903L438.662 787.452L437.715 788.615ZM437.715 794.088L438.341 795.451L439.215 795.049V794.088H437.715ZM437.424 794.222L436.797 792.859L436.795 792.86L437.424 794.222ZM429.908 797.69L430.534 799.054L430.537 799.052L429.908 797.69ZM429.753 797.762L429.426 799.226L429.919 799.336L430.379 799.125L429.753 797.762ZM429.587 797.725L429.254 799.187L429.26 799.188L429.587 797.725ZM400.389 791.075L400.054 792.537L400.056 792.538L400.389 791.075ZM400 790.986H398.5V792.182L399.666 792.449L400 790.986ZM400 786.932L398.868 785.948L398.5 786.371V786.932H400ZM400.123 786.79L398.991 785.806L398.991 785.806L400.123 786.79ZM405.904 780.142L407.036 781.126L407.036 781.126L405.904 780.142ZM406.054 779.97V778.47H405.37L404.922 778.986L406.054 779.97ZM414.42 779.97V781.47H415.153L415.604 780.891L414.42 779.97ZM418.318 774.959L419.502 775.88L419.505 775.876L418.318 774.959ZM418.468 774.766V773.266H417.731L417.281 773.848L418.468 774.766ZM420.727 774.766V776.266H421.623L422.047 775.477L420.727 774.766ZM424.617 767.54L425.938 768.251L425.974 768.184L426.004 768.113L424.617 767.54ZM446.563 714.409L447.95 714.982L448.001 714.859L448.029 714.729L446.563 714.409ZM446.565 714.4L445.1 714.078L445.1 714.079L446.565 714.4ZM446.601 714.249L445.141 713.903L445.141 713.903L446.601 714.249ZM446.745 713.69L445.299 713.291L445.299 713.291L446.745 713.69ZM447.389 711.717L445.983 711.193V711.193L447.389 711.717ZM450.539 705.738L449.317 704.868L449.317 704.868L450.539 705.738ZM466.991 704.517L466.991 703.017H466.991L466.991 704.517ZM456.907 709.92L455.707 709.02L455.707 709.02L456.907 709.92ZM454.747 713.591L453.381 712.971L453.381 712.971L454.747 713.591ZM454.246 714.804L452.839 714.284L452.839 714.284L454.246 714.804ZM454.124 715.148L452.702 714.672L452.702 714.672L454.124 715.148ZM454.094 715.242L452.665 714.785L452.665 714.785L454.094 715.242ZM454.091 715.25L455.474 715.831L455.499 715.77L455.519 715.707L454.091 715.25ZM435.02 760.617L436.402 761.199L436.402 761.198L435.02 760.617ZM434.728 761.312L433.345 760.73L432.469 762.812H434.728V761.312ZM438.151 761.312V762.812H439.227L439.572 761.793L438.151 761.312ZM438.267 760.972L439.687 761.453L439.69 761.446L438.267 760.972ZM438.268 760.969L436.849 760.482L436.845 760.494L438.268 760.969ZM438.272 760.955L439.691 761.444L439.691 761.444L438.272 760.955ZM438.291 760.902L439.707 761.397L439.707 761.397L438.291 760.902ZM438.364 760.694L436.953 760.186L436.953 760.186L438.364 760.694ZM438.652 759.925L437.253 759.384L437.253 759.384L438.652 759.925ZM439.729 757.382L438.367 756.753L438.367 756.753L439.729 757.382ZM443.353 751.623L442.287 750.567L442.287 750.567L443.353 751.623ZM448.254 748.271L447.551 746.945L447.551 746.945L448.254 748.271ZM450.401 747.209L449.775 745.846H449.775L450.401 747.209ZM451.05 746.919L450.45 745.544L450.45 745.544L451.05 746.919ZM451.225 746.843L450.637 745.463L450.637 745.463L451.225 746.843ZM451.27 746.824L451.852 748.207L451.853 748.206L451.27 746.824ZM451.28 746.819L450.713 745.431L450.702 745.435L451.28 746.819ZM451.283 746.818V745.318H450.983L450.706 745.434L451.283 746.818ZM451.284 746.818V748.318H454.905L452.345 745.758L451.284 746.818ZM451.283 746.817L450.71 745.431L448.634 746.289L450.223 747.878L451.283 746.817ZM451.491 746.731L452.064 748.118L452.689 747.859L452.91 747.219L451.491 746.731ZM451.564 746.519L452.983 747.007L452.987 746.994L452.991 746.982L451.564 746.519ZM451.565 746.515L450.15 746.017L450.15 746.017L451.565 746.515ZM451.572 746.497L450.16 745.99L450.16 745.99L451.572 746.497ZM451.601 746.419L453.005 746.947L453.005 746.947L451.601 746.419ZM451.723 746.113L450.337 745.539L450.337 745.539L451.723 746.113ZM452.237 745.003L450.901 744.322L450.901 744.322L452.237 745.003ZM454.473 741.62L453.326 740.653L453.326 740.653L454.473 741.62ZM464.679 736.738L464.679 735.238H464.679V736.738ZM475.824 740.679L476.753 739.501L476.753 739.501L475.824 740.679ZM478.648 743.393L479.791 742.42V742.42L478.648 743.393ZM479.354 744.28L480.564 743.394L480.564 743.394L479.354 744.28ZM479.527 744.524L480.775 743.692L480.77 743.685L480.765 743.677L479.527 744.524ZM479.58 744.604L480.842 743.792L480.835 743.782L480.828 743.771L479.58 744.604ZM480.501 746.035L479.239 746.847L482.001 751.14V746.035H480.501ZM480.501 718.271H482.001V718.133L481.976 717.997L480.501 718.271ZM480.493 718.229L481.968 717.955L481.697 716.499L480.238 716.751L480.493 718.229ZM480.001 718.314L479.744 716.837L480.256 719.793L480.001 718.314ZM480.493 718.229H478.993V718.356L479.015 718.482L480.493 718.229ZM480.493 718.228H481.993V717.873L481.835 717.557L480.493 718.228ZM480.492 718.226L479.015 718.485L479.053 718.701L479.151 718.896L480.492 718.226ZM480.491 718.217L481.968 717.951L481.967 717.95L480.491 718.217ZM480.485 718.185L481.96 717.909L481.96 717.909L480.485 718.185ZM480.462 718.067L478.991 718.363L478.991 718.363L480.462 718.067ZM480.367 717.631L481.829 717.293V717.293L480.367 717.631ZM479.95 716.09L481.384 715.648V715.648L479.95 716.09ZM477.94 711.416L479.24 710.667L479.24 710.667L477.94 711.416ZM467.858 697V698.5C476.033 698.5 480.443 703.223 482.864 708.065L484.206 707.395L485.548 706.724C482.801 701.231 477.527 695.5 467.858 695.5V697ZM484.206 707.395L482.864 708.065C484.08 710.497 484.78 712.941 485.175 714.784L486.642 714.47L488.108 714.155C487.679 712.15 486.91 709.448 485.548 706.724L484.206 707.395ZM486.642 714.47L485.175 714.784C485.372 715.703 485.491 716.467 485.562 716.998L487.049 716.801L488.536 716.603C488.457 716.006 488.324 715.163 488.108 714.155L486.642 714.47ZM487.049 716.801L485.562 716.998C485.597 717.262 485.619 717.469 485.633 717.608L487.126 717.459L488.619 717.31C488.602 717.143 488.576 716.904 488.536 716.604L487.049 716.801ZM487.126 717.459L485.633 717.608C485.641 717.679 485.645 717.731 485.648 717.763L487.143 717.636L488.637 717.508C488.633 717.459 488.627 717.392 488.619 717.31L487.126 717.459ZM487.143 717.636L485.648 717.763C485.65 717.785 485.651 717.795 485.651 717.799L487.146 717.683L488.642 717.566C488.641 717.549 488.639 717.527 488.637 717.508L487.143 717.636ZM487.146 717.683L485.651 717.8C485.651 717.803 485.652 717.805 485.652 717.809L487.147 717.695L488.643 717.582C488.643 717.579 488.642 717.573 488.642 717.565L487.146 717.683ZM487.147 717.695L485.652 717.809C485.656 717.865 485.663 717.914 485.67 717.955C485.677 717.996 485.685 718.031 485.692 718.059C485.699 718.088 485.706 718.111 485.711 718.128C485.716 718.145 485.72 718.158 485.722 718.164C485.723 718.165 485.723 718.167 485.723 718.167C485.724 718.168 485.724 718.169 485.724 718.169C485.724 718.17 485.723 718.167 485.723 718.165C485.722 718.162 485.72 718.157 485.718 718.15C485.716 718.144 485.713 718.135 485.71 718.124C485.707 718.113 485.703 718.099 485.698 718.082C485.694 718.065 485.689 718.045 485.683 718.021C485.678 717.997 485.672 717.968 485.667 717.935C485.662 717.901 485.656 717.861 485.653 717.814L487.148 717.699L488.644 717.584C488.64 717.538 488.635 717.497 488.63 717.463C488.624 717.43 488.619 717.401 488.613 717.377C488.608 717.353 488.603 717.332 488.599 717.315C488.594 717.299 488.59 717.284 488.587 717.273C488.583 717.262 488.581 717.253 488.578 717.246C488.576 717.239 488.575 717.234 488.574 717.231C488.573 717.229 488.572 717.226 488.572 717.227C488.572 717.227 488.572 717.227 488.572 717.227C488.572 717.227 488.572 717.228 488.573 717.228C488.573 717.229 488.573 717.23 488.574 717.231C488.575 717.237 488.58 717.249 488.584 717.266C488.589 717.282 488.596 717.306 488.603 717.333C488.61 717.361 488.618 717.396 488.625 717.437C488.632 717.478 488.639 717.526 488.643 717.582L487.147 717.695ZM487.148 717.699H485.648V717.7H487.148H488.648V717.699H487.148ZM487.148 717.7L485.653 717.59C485.674 717.301 485.782 716.989 486.011 716.722C486.201 716.501 486.407 716.392 486.505 716.345C486.686 716.259 486.845 716.231 486.858 716.229C486.904 716.22 486.941 716.215 486.953 716.213C486.97 716.211 486.984 716.209 486.99 716.209C487.004 716.207 487.014 716.206 487.016 716.206C487.018 716.206 487.02 716.206 487.02 716.206C487.021 716.206 487.022 716.206 487.022 716.206C487.022 716.206 487.021 716.206 487.021 716.206C487.02 716.206 487.02 716.206 487.019 716.206C487.016 716.206 487.014 716.206 487.01 716.207C487.002 716.207 486.991 716.208 486.975 716.209C486.913 716.214 486.79 716.222 486.543 716.24L486.649 717.736L486.756 719.233C487.003 719.215 487.128 719.206 487.193 719.201C487.223 719.199 487.244 719.197 487.258 719.196C487.26 719.196 487.281 719.195 487.304 719.192C487.311 719.191 487.325 719.19 487.342 719.188C487.356 719.186 487.392 719.181 487.439 719.172C487.452 719.169 487.611 719.141 487.792 719.055C487.889 719.009 488.096 718.899 488.286 718.678C488.515 718.412 488.623 718.099 488.644 717.811L487.148 717.7ZM486.649 717.736L486.755 719.233L487.254 719.197L487.148 717.701L487.043 716.205L486.544 716.24L486.649 717.736ZM487.148 717.701L485.651 717.784L485.652 717.802L487.149 717.719L488.647 717.636L488.646 717.618L487.148 717.701ZM487.149 717.719H485.649V754.298H487.149H488.649V717.719H487.149ZM487.149 754.298L485.905 755.136L494.781 768.308L496.025 767.47L497.269 766.631L488.393 753.46L487.149 754.298ZM496.025 767.47L494.783 768.311L494.869 768.438L496.111 767.597L497.353 766.756L497.268 766.629L496.025 767.47ZM496.111 767.597H494.611V780.618H496.111H497.611V767.597H496.111ZM496.111 780.618L494.856 779.798L494.775 779.922L496.03 780.742L497.286 781.563L497.367 781.439L496.111 780.618ZM496.03 780.742L496.848 779.485L496.429 779.212L495.611 780.47L494.794 781.727L495.212 782L496.03 780.742ZM495.611 780.47L494.79 781.725L495.208 781.998L496.029 780.743L496.85 779.488L496.433 779.214L495.611 780.47ZM496.029 780.743L494.688 780.072L494.687 780.074L496.028 780.745L497.37 781.416L497.371 781.414L496.029 780.743ZM496.028 780.745L494.776 779.92C494.784 779.907 494.792 779.896 494.798 779.886C494.805 779.877 494.811 779.868 494.817 779.861C494.827 779.847 494.836 779.835 494.841 779.828C494.847 779.821 494.851 779.816 494.852 779.814C494.853 779.813 494.853 779.813 494.853 779.813C494.854 779.813 494.854 779.812 494.854 779.812C494.854 779.812 494.854 779.812 494.854 779.812C494.854 779.812 494.853 779.813 494.853 779.814C494.851 779.815 494.848 779.82 494.844 779.825C494.84 779.83 494.834 779.838 494.827 779.847C494.814 779.864 494.795 779.891 494.773 779.923L496.025 780.749L497.277 781.575C497.257 781.607 497.238 781.632 497.225 781.649C497.219 781.658 497.213 781.665 497.209 781.67C497.206 781.675 497.202 781.679 497.201 781.68C497.201 781.681 497.2 781.681 497.201 781.681C497.201 781.681 497.201 781.68 497.202 781.679C497.204 781.677 497.209 781.671 497.214 781.664C497.22 781.656 497.229 781.645 497.239 781.63C497.245 781.623 497.251 781.614 497.258 781.604C497.265 781.594 497.273 781.583 497.281 781.57L496.028 780.745ZM496.025 780.749L494.773 779.924C494.765 779.936 494.759 779.945 494.754 779.952C494.75 779.959 494.746 779.965 494.744 779.969C494.742 779.972 494.74 779.975 494.74 779.977C494.739 779.977 494.739 779.977 494.739 779.977C494.739 779.978 494.739 779.978 494.739 779.978C494.739 779.978 494.739 779.978 494.739 779.977C494.741 779.975 494.751 779.957 494.766 779.935L496.016 780.765L497.265 781.595C497.284 781.566 497.299 781.542 497.303 781.534C497.304 781.533 497.306 781.53 497.305 781.531C497.305 781.531 497.305 781.532 497.305 781.532C497.304 781.533 497.304 781.534 497.303 781.535C497.301 781.538 497.298 781.543 497.294 781.549C497.291 781.555 497.285 781.563 497.278 781.574L496.025 780.749ZM496.016 780.765L494.766 779.935C494.761 779.942 494.751 779.957 494.735 779.981L495.978 780.821L497.22 781.662C497.237 781.637 497.253 781.613 497.265 781.595L496.016 780.765ZM495.978 780.821L494.735 779.98C494.71 780.018 494.666 780.081 494.605 780.169L495.831 781.032L497.057 781.896C497.123 781.803 497.179 781.723 497.22 781.662L495.978 780.821ZM495.831 781.032L494.605 780.169C494.489 780.333 494.315 780.573 494.092 780.861L495.279 781.778L496.466 782.695C496.72 782.367 496.919 782.092 497.057 781.896L495.831 781.032ZM495.279 781.778L494.092 780.861C493.644 781.441 493.002 782.214 492.22 782.99L493.277 784.055L494.334 785.119C495.234 784.226 495.963 783.347 496.466 782.695L495.279 781.778ZM493.277 784.055L492.22 782.99C490.611 784.588 488.6 786.015 486.597 786.12L486.676 787.618L486.755 789.116C489.927 788.949 492.626 786.816 494.334 785.119L493.277 784.055ZM486.676 787.618L486.597 786.12C485.05 786.202 483.171 785.745 481.612 785.226L481.139 786.649L480.665 788.073C482.313 788.621 484.629 789.228 486.755 789.116L486.676 787.618ZM481.139 786.649L481.612 785.226C480.848 784.972 480.186 784.711 479.716 784.514L479.137 785.897L478.557 787.281C479.079 787.5 479.812 787.789 480.665 788.073L481.139 786.649ZM479.137 785.897L479.716 784.514C479.48 784.415 479.294 784.334 479.172 784.278L478.555 785.646L477.938 787.013C478.088 787.081 478.298 787.173 478.557 787.281L479.137 785.897ZM478.555 785.646L479.172 784.278C479.185 784.284 479.196 784.29 479.202 784.292C479.207 784.295 479.21 784.297 479.208 784.295C479.207 784.295 479.205 784.294 479.202 784.292C479.199 784.291 479.195 784.289 479.191 784.287C479.181 784.282 479.166 784.275 479.147 784.266L478.528 785.633L477.909 786.999C477.895 786.993 477.884 786.987 477.879 786.985C477.876 786.984 477.874 786.983 477.874 786.982C477.874 786.982 477.873 786.982 477.875 786.983C477.877 786.984 477.885 786.988 477.894 786.992C477.904 786.997 477.919 787.005 477.938 787.013L478.555 785.646ZM478.528 785.633L478.031 784.218L467.527 787.91L468.024 789.325L468.522 790.74L479.026 787.048L478.528 785.633ZM468.024 789.325L467.545 787.904L467.464 787.931L467.943 789.353L468.423 790.774L468.504 790.746L468.024 789.325ZM467.943 789.353V787.853H441.331V789.353V790.853H467.943V789.353ZM441.331 789.353L442.437 788.34L442.289 788.177L441.183 789.19L440.076 790.203L440.225 790.366L441.331 789.353ZM441.183 789.19L442.288 788.177L435.928 781.239L434.822 782.253L433.717 783.267L440.077 790.204L441.183 789.19ZM434.822 782.253L435.931 781.242L435.8 781.099L434.691 782.109L433.583 783.12L433.714 783.263L434.822 782.253ZM434.691 782.109H436.191V773.742H434.691H433.191V782.109H434.691ZM434.691 773.742V772.242H430.198V773.742V775.242H434.691V773.742ZM430.198 773.742H428.698V780.126H430.198H431.698V773.742H430.198ZM430.198 780.126L429.66 781.526L433.097 782.848L433.636 781.448L434.174 780.048L430.737 778.726L430.198 780.126ZM433.636 781.448L433.098 782.848L433.52 783.011L434.058 781.61L434.596 780.21L434.174 780.048L433.636 781.448ZM434.058 781.61L432.611 781.215L432.492 781.65L433.938 782.046L435.385 782.442L435.504 782.006L434.058 781.61ZM433.938 782.046L432.491 781.651L431.709 784.517L433.156 784.912L434.603 785.307L435.386 782.441L433.938 782.046ZM433.156 784.912L432.211 786.076L436.585 789.629L437.53 788.465L438.476 787.301L434.102 783.748L433.156 784.912ZM437.53 788.465L436.583 789.628L436.767 789.778L437.715 788.615L438.662 787.452L438.478 787.302L437.53 788.465ZM437.715 788.615H436.215V794.088H437.715H439.215V788.615H437.715ZM437.715 794.088L437.088 792.725L436.797 792.859L437.424 794.222L438.05 795.585L438.341 795.451L437.715 794.088ZM437.424 794.222L436.795 792.86L429.28 796.328L429.908 797.69L430.537 799.052L438.052 795.584L437.424 794.222ZM429.908 797.69L429.282 796.327L429.127 796.399L429.753 797.762L430.379 799.125L430.534 799.054L429.908 797.69ZM429.753 797.762L430.08 796.298L429.914 796.261L429.587 797.725L429.26 799.188L429.426 799.226L429.753 797.762ZM429.587 797.725L429.92 796.262L400.722 789.613L400.389 791.075L400.056 792.538L429.254 799.187L429.587 797.725ZM400.389 791.075L400.723 789.613L400.334 789.524L400 790.986L399.666 792.449L400.054 792.537L400.389 791.075ZM400 790.986H401.5V786.932H400H398.5V790.986H400ZM400 786.932L401.132 787.916L401.255 787.774L400.123 786.79L398.991 785.806L398.868 785.948L400 786.932ZM400.123 786.79L401.255 787.774L407.036 781.126L405.904 780.142L404.772 779.157L398.991 785.806L400.123 786.79ZM405.904 780.142L407.036 781.126L407.186 780.954L406.054 779.97L404.922 778.986L404.772 779.157L405.904 780.142ZM406.054 779.97V781.47H414.42V779.97V778.47H406.054V779.97ZM414.42 779.97L415.604 780.891L419.502 775.88L418.318 774.959L417.134 774.038L413.236 779.049L414.42 779.97ZM418.318 774.959L419.505 775.876L419.655 775.683L418.468 774.766L417.281 773.848L417.131 774.042L418.318 774.959ZM418.468 774.766V776.266H420.727V774.766V773.266H418.468V774.766ZM420.727 774.766L422.047 775.477L425.938 768.251L424.617 767.54L423.296 766.829L419.406 774.054L420.727 774.766ZM424.617 767.54L426.004 768.113L447.95 714.982L446.563 714.409L445.177 713.837L423.231 766.967L424.617 767.54ZM446.563 714.409L448.029 714.729C448.028 714.732 448.028 714.734 448.028 714.733C448.028 714.732 448.029 714.727 448.031 714.722L446.565 714.4L445.1 714.079C445.101 714.077 445.101 714.075 445.101 714.077C445.1 714.078 445.099 714.083 445.098 714.089L446.563 714.409ZM446.565 714.4L448.03 714.722C448.035 714.702 448.044 714.662 448.06 714.595L446.601 714.249L445.141 713.903C445.126 713.966 445.111 714.029 445.1 714.078L446.565 714.4ZM446.601 714.249L448.06 714.595C448.087 714.483 448.13 714.312 448.191 714.09L446.745 713.69L445.299 713.291C445.229 713.547 445.176 713.754 445.141 713.903L446.601 714.249ZM446.745 713.69L448.191 714.09C448.313 713.648 448.507 713.01 448.794 712.241L447.389 711.717L445.983 711.193C445.662 712.054 445.441 712.776 445.299 713.291L446.745 713.69ZM447.389 711.717L448.794 712.241C449.369 710.7 450.307 708.651 451.761 706.608L450.539 705.738L449.317 704.868C447.673 707.178 446.623 709.477 445.983 711.193L447.389 711.717ZM450.539 705.738L451.761 706.608C454.653 702.546 459.578 698.5 467.858 698.5V697V695.5C458.4 695.5 452.64 700.201 449.317 704.868L450.539 705.738ZM466.991 704.517L466.991 703.017C461.507 703.017 457.873 706.133 455.707 709.02L456.907 709.92L458.107 710.82C459.952 708.361 462.796 706.017 466.991 706.017L466.991 704.517ZM456.907 709.92L455.707 709.02C454.622 710.467 453.866 711.902 453.381 712.971L454.747 713.591L456.113 714.211C456.535 713.281 457.187 712.048 458.107 710.82L456.907 709.92ZM454.747 713.591L453.381 712.971C453.138 713.508 452.959 713.96 452.839 714.284L454.246 714.804L455.653 715.323C455.751 715.059 455.903 714.674 456.113 714.211L454.747 713.591ZM454.246 714.804L452.839 714.284C452.78 714.445 452.734 714.576 452.702 714.672L454.124 715.148L455.546 715.625C455.568 715.56 455.604 715.457 455.653 715.323L454.246 714.804ZM454.124 715.148L452.702 714.672C452.684 714.725 452.667 714.778 452.665 714.785L454.094 715.242L455.522 715.699C455.525 715.691 455.528 715.683 455.53 715.677C455.532 715.67 455.533 715.665 455.535 715.659C455.539 715.647 455.542 715.636 455.546 715.625L454.124 715.148ZM454.094 715.242L452.665 714.785C452.675 714.753 452.685 714.727 452.691 714.711C452.694 714.703 452.697 714.697 452.698 714.692C452.699 714.69 452.7 714.689 452.7 714.687C452.701 714.686 452.701 714.686 452.701 714.686C452.701 714.685 452.7 714.688 452.699 714.691C452.697 714.695 452.694 714.702 452.691 714.71C452.688 714.719 452.684 714.73 452.679 714.744C452.674 714.757 452.668 714.774 452.662 714.793L454.091 715.25L455.519 715.707C455.514 715.725 455.508 715.741 455.503 715.754C455.499 715.767 455.495 715.778 455.492 715.786C455.489 715.794 455.486 715.8 455.485 715.803C455.484 715.806 455.483 715.808 455.484 715.807C455.484 715.806 455.485 715.803 455.487 715.798C455.489 715.793 455.492 715.786 455.495 715.777C455.502 715.76 455.512 715.733 455.522 715.699L454.094 715.242ZM454.091 715.25L452.708 714.669L433.637 760.036L435.02 760.617L436.402 761.198L455.474 715.831L454.091 715.25ZM435.02 760.617L433.637 760.036L433.345 760.73L434.728 761.312L436.11 761.893L436.402 761.199L435.02 760.617ZM434.728 761.312V762.812H438.151V761.312V759.812H434.728V761.312ZM438.151 761.312L439.572 761.793L439.687 761.453L438.267 760.972L436.846 760.49L436.731 760.83L438.151 761.312ZM438.267 760.972L439.69 761.446L439.691 761.443L438.268 760.969L436.845 760.494L436.844 760.497L438.267 760.972ZM438.268 760.969L439.686 761.455C439.684 761.462 439.683 761.467 439.682 761.469C439.68 761.472 439.68 761.475 439.679 761.476C439.679 761.477 439.679 761.477 439.679 761.477C439.679 761.477 439.679 761.477 439.679 761.477C439.679 761.476 439.679 761.476 439.68 761.475C439.681 761.471 439.685 761.459 439.691 761.444L438.272 760.955L436.854 760.466C436.857 760.457 436.86 760.45 436.86 760.451C436.86 760.451 436.86 760.451 436.859 760.452C436.859 760.453 436.858 760.455 436.858 760.457C436.857 760.459 436.856 760.462 436.854 760.466C436.853 760.47 436.851 760.475 436.849 760.482L438.268 760.969ZM438.272 760.955L439.691 761.444C439.69 761.445 439.69 761.445 439.691 761.443C439.692 761.441 439.693 761.438 439.694 761.433C439.697 761.425 439.702 761.412 439.707 761.397L438.291 760.902L436.875 760.407C436.872 760.416 436.869 760.424 436.866 760.433C436.864 760.44 436.859 760.453 436.854 760.466L438.272 760.955ZM438.291 760.902L439.707 761.397C439.726 761.342 439.746 761.284 439.775 761.203L438.364 760.694L436.953 760.186C436.917 760.285 436.889 760.369 436.875 760.407L438.291 760.902ZM438.364 760.694L439.775 761.203C439.837 761.032 439.93 760.78 440.052 760.465L438.652 759.925L437.253 759.384C437.123 759.721 437.022 759.994 436.953 760.186L438.364 760.694ZM438.652 759.925L440.052 760.465C440.295 759.836 440.649 758.967 441.09 758.011L439.729 757.382L438.367 756.753C437.892 757.78 437.513 758.711 437.253 759.384L438.652 759.925ZM439.729 757.382L441.09 758.011C442.003 756.036 443.185 753.923 444.418 752.679L443.353 751.623L442.287 750.567C440.663 752.206 439.302 754.728 438.367 756.753L439.729 757.382ZM443.353 751.623L444.418 752.679C445.494 751.593 447.288 750.48 448.956 749.596L448.254 748.271L447.551 746.945C445.839 747.853 443.701 749.14 442.287 750.567L443.353 751.623ZM448.254 748.271L448.956 749.596C449.765 749.167 450.498 748.815 451.028 748.572L450.401 747.209L449.775 745.846C449.206 746.108 448.421 746.484 447.551 746.945L448.254 748.271ZM450.401 747.209L451.028 748.572C451.29 748.451 451.502 748.358 451.649 748.294L451.05 746.919L450.45 745.544C450.293 745.612 450.061 745.714 449.775 745.846L450.401 747.209ZM451.05 746.919L451.649 748.294C451.738 748.255 451.78 748.237 451.812 748.223L451.225 746.843L450.637 745.463C450.59 745.483 450.514 745.516 450.45 745.544L451.05 746.919ZM451.225 746.843L451.812 748.223C451.812 748.223 451.812 748.223 451.817 748.221C451.818 748.22 451.819 748.22 451.821 748.219C451.823 748.219 451.825 748.218 451.828 748.217C451.832 748.215 451.841 748.211 451.852 748.207L451.27 746.824L450.688 745.442C450.693 745.439 450.696 745.438 450.694 745.439C450.694 745.439 450.693 745.439 450.691 745.44C450.689 745.441 450.687 745.442 450.685 745.443C450.674 745.447 450.657 745.454 450.637 745.463L451.225 746.843ZM451.27 746.824L451.853 748.206C451.884 748.193 451.908 748.182 451.915 748.178C451.916 748.178 451.917 748.177 451.917 748.177C451.918 748.177 451.918 748.177 451.918 748.177C451.917 748.177 451.915 748.179 451.911 748.18C451.908 748.182 451.902 748.185 451.893 748.188C451.886 748.192 451.874 748.197 451.859 748.203L451.28 746.819L450.702 745.435C450.686 745.442 450.674 745.447 450.665 745.451C450.656 745.455 450.649 745.458 450.645 745.46C450.641 745.462 450.638 745.464 450.637 745.464C450.636 745.465 450.636 745.465 450.636 745.465C450.635 745.465 450.636 745.465 450.636 745.465C450.635 745.465 450.636 745.465 450.636 745.465C450.64 745.463 450.66 745.453 450.686 745.442L451.27 746.824ZM451.28 746.819L451.848 748.208C451.829 748.216 451.812 748.222 451.797 748.228C451.782 748.233 451.769 748.237 451.759 748.241C451.748 748.245 451.739 748.247 451.732 748.25C451.725 748.252 451.719 748.254 451.716 748.254C451.715 748.255 451.714 748.255 451.713 748.255C451.713 748.256 451.713 748.256 451.713 748.256C451.713 748.256 451.713 748.255 451.713 748.255C451.714 748.255 451.716 748.255 451.718 748.254C451.72 748.253 451.723 748.252 451.727 748.251C451.731 748.25 451.737 748.248 451.743 748.246C451.75 748.244 451.758 748.241 451.768 748.238C451.778 748.235 451.79 748.23 451.805 748.225C451.819 748.219 451.838 748.212 451.86 748.203L451.283 746.818L450.706 745.434C450.728 745.425 450.747 745.417 450.761 745.412C450.776 745.407 450.789 745.402 450.798 745.399C450.808 745.396 450.816 745.393 450.822 745.391C450.829 745.389 450.834 745.387 450.838 745.386C450.842 745.385 450.845 745.384 450.847 745.383C450.849 745.383 450.851 745.382 450.851 745.382C450.852 745.382 450.852 745.382 450.852 745.382C450.852 745.382 450.852 745.382 450.852 745.382C450.852 745.382 450.852 745.382 450.852 745.382C450.852 745.382 450.852 745.382 450.852 745.382C450.852 745.382 450.852 745.382 450.852 745.382C450.852 745.382 450.851 745.382 450.851 745.382C450.851 745.382 450.849 745.382 450.848 745.383C450.844 745.384 450.838 745.386 450.831 745.388C450.824 745.39 450.815 745.393 450.804 745.397C450.793 745.401 450.779 745.405 450.764 745.411C450.75 745.416 450.732 745.423 450.713 745.431L451.28 746.819ZM451.283 746.818V748.318H451.284V746.818V745.318H451.283V746.818ZM451.284 746.818L452.345 745.758L452.344 745.757L451.283 746.817L450.223 747.878L450.224 747.879L451.284 746.818ZM451.283 746.817L451.856 748.204L452.064 748.118L451.491 746.731L450.918 745.345L450.71 745.431L451.283 746.817ZM451.491 746.731L452.91 747.219L452.983 747.007L451.564 746.519L450.146 746.031L450.073 746.243L451.491 746.731ZM451.564 746.519L452.991 746.982C452.999 746.957 453.006 746.935 453.011 746.917C453.015 746.9 453.019 746.884 453.022 746.872C453.025 746.86 453.027 746.85 453.029 746.842C453.031 746.834 453.032 746.828 453.033 746.824C453.034 746.819 453.035 746.815 453.035 746.814C453.036 746.812 453.036 746.81 453.036 746.811C453.036 746.811 453.036 746.811 453.036 746.812C453.035 746.812 453.035 746.813 453.035 746.814C453.035 746.816 453.034 746.819 453.033 746.822C453.031 746.836 453.025 746.862 453.017 746.894C453.008 746.926 452.997 746.967 452.98 747.012L451.565 746.515L450.15 746.017C450.118 746.109 450.102 746.183 450.096 746.212C450.095 746.215 450.095 746.218 450.094 746.221C450.094 746.222 450.094 746.224 450.094 746.224C450.094 746.225 450.094 746.223 450.094 746.222C450.094 746.22 450.095 746.217 450.096 746.212C450.098 746.205 450.101 746.187 450.107 746.164C450.11 746.152 450.114 746.137 450.118 746.12C450.123 746.102 450.13 746.08 450.138 746.055L451.564 746.519ZM451.565 746.515L452.98 747.012C452.975 747.028 452.97 747.041 452.967 747.049C452.964 747.058 452.961 747.064 452.96 747.068C452.959 747.07 452.958 747.071 452.958 747.072C452.958 747.073 452.957 747.074 452.957 747.074C452.957 747.074 452.957 747.074 452.957 747.074C452.957 747.074 452.957 747.074 452.957 747.074C452.957 747.073 452.957 747.073 452.957 747.073C452.958 747.073 452.958 747.072 452.958 747.071C452.962 747.061 452.972 747.036 452.984 747.004L451.572 746.497L450.16 745.99C450.169 745.966 450.177 745.948 450.178 745.944C450.178 745.944 450.178 745.944 450.178 745.944C450.178 745.944 450.178 745.944 450.178 745.944C450.178 745.945 450.178 745.945 450.178 745.945C450.177 745.947 450.176 745.95 450.174 745.955C450.172 745.96 450.169 745.967 450.165 745.977C450.162 745.986 450.156 746 450.15 746.017L451.565 746.515ZM451.572 746.497L452.984 747.004C452.987 746.997 452.989 746.989 452.991 746.985C452.993 746.979 452.994 746.975 452.996 746.971C452.999 746.963 453.002 746.955 453.005 746.947L451.601 746.419L450.197 745.891C450.178 745.94 450.161 745.989 450.16 745.99L451.572 746.497ZM451.601 746.419L453.005 746.947C453.023 746.898 453.057 746.811 453.108 746.687L451.723 746.113L450.337 745.539C450.278 745.682 450.23 745.801 450.197 745.891L451.601 746.419ZM451.723 746.113L453.108 746.687C453.206 746.453 453.359 746.106 453.574 745.684L452.237 745.003L450.901 744.322C450.646 744.822 450.46 745.242 450.337 745.539L451.723 746.113ZM452.237 745.003L453.574 745.684C454.007 744.835 454.676 743.707 455.62 742.587L454.473 741.62L453.326 740.653C452.199 741.991 451.409 743.324 450.901 744.322L452.237 745.003ZM454.473 741.62L455.62 742.587C457.497 740.36 460.379 738.238 464.679 738.238V736.738V735.238C459.24 735.238 455.585 737.972 453.326 740.653L454.473 741.62ZM464.679 736.738L464.679 738.238C469.172 738.238 472.578 740.029 474.895 741.856L475.824 740.679L476.753 739.501C474.063 737.379 470.021 735.238 464.679 735.238L464.679 736.738ZM475.824 740.679L474.895 741.856C476.055 742.771 476.928 743.685 477.506 744.365L478.648 743.393L479.791 742.42C479.111 741.622 478.098 740.561 476.753 739.501L475.824 740.679ZM478.648 743.393L477.506 744.365C477.795 744.704 478.008 744.981 478.143 745.166L479.354 744.28L480.564 743.394C480.388 743.154 480.13 742.819 479.791 742.42L478.648 743.393ZM479.354 744.28L478.143 745.166C478.213 745.262 478.262 745.332 478.29 745.372L479.527 744.524L480.765 743.677C480.717 743.607 480.649 743.511 480.564 743.394L479.354 744.28ZM479.527 744.524L478.279 745.356L478.332 745.436L479.58 744.604L480.828 743.771L480.775 743.692L479.527 744.524ZM479.58 744.604L478.319 745.415L479.239 746.847L480.501 746.035L481.763 745.224L480.842 743.792L479.58 744.604ZM480.501 746.035H482.001V718.271H480.501H479.001V746.035H480.501ZM480.501 718.271L481.976 717.997L481.968 717.955L480.493 718.229L479.018 718.504L479.026 718.546L480.501 718.271ZM480.493 718.229L480.238 716.751L479.746 716.836L480.001 718.314L480.256 719.793L480.748 719.708L480.493 718.229ZM480.001 718.314L480.258 719.792C480.504 719.75 480.628 719.728 480.69 719.717C480.72 719.712 480.739 719.709 480.751 719.706C480.752 719.706 480.772 719.703 480.793 719.698C480.8 719.697 480.814 719.694 480.832 719.69C480.844 719.687 480.888 719.677 480.943 719.66C480.971 719.651 481.025 719.633 481.092 719.604C481.146 719.58 481.286 719.517 481.437 719.394C481.609 719.255 481.846 718.997 481.947 718.596C481.994 718.413 481.997 718.254 481.991 718.143C481.988 718.09 481.982 718.047 481.979 718.02C481.977 718.009 481.975 717.993 481.974 717.987C481.973 717.982 481.972 717.976 481.972 717.975L480.493 718.229L479.015 718.482C479.015 718.481 479.014 718.475 479.013 718.47C479.012 718.464 479.009 718.448 479.008 718.437C479.004 718.41 478.999 718.367 478.996 718.314C478.989 718.203 478.993 718.044 479.039 717.861C479.14 717.46 479.377 717.202 479.549 717.063C479.7 716.94 479.84 716.877 479.895 716.853C479.961 716.824 480.016 716.806 480.043 716.798C480.098 716.78 480.142 716.77 480.153 716.768C480.171 716.763 480.185 716.761 480.191 716.759C480.211 716.755 480.227 716.752 480.22 716.754C480.217 716.754 480.205 716.756 480.174 716.762C480.113 716.773 479.99 716.794 479.744 716.837L480.001 718.314ZM480.493 718.229H481.993V718.228H480.493H478.993V718.229H480.493ZM480.493 718.228L481.835 717.557L481.834 717.555L480.492 718.226L479.151 718.896L479.152 718.898L480.493 718.228ZM480.492 718.226L481.97 717.966C481.972 717.983 481.975 717.998 481.977 718.01C481.979 718.023 481.98 718.035 481.981 718.044C481.983 718.063 481.985 718.079 481.986 718.087C481.987 718.096 481.987 718.103 481.987 718.105C481.987 718.106 481.987 718.106 481.987 718.106C481.987 718.105 481.987 718.104 481.987 718.102C481.987 718.099 481.986 718.092 481.985 718.084C481.985 718.076 481.984 718.065 481.982 718.052C481.979 718.027 481.975 717.992 481.968 717.951L480.491 718.217L479.015 718.482C479.008 718.443 479.004 718.411 479.001 718.387C479 718.375 478.999 718.365 478.998 718.357C478.997 718.35 478.997 718.344 478.997 718.341C478.997 718.34 478.996 718.34 478.996 718.339C478.996 718.339 478.996 718.339 478.996 718.339C478.996 718.338 478.996 718.34 478.997 718.341C478.997 718.343 478.997 718.351 478.998 718.36C478.999 718.37 479.001 718.386 479.003 718.405C479.004 718.415 479.006 718.427 479.008 718.44C479.009 718.453 479.012 718.468 479.015 718.485L480.492 718.226ZM480.491 718.217L481.967 717.95C481.967 717.949 481.964 717.929 481.96 717.909L480.485 718.185L479.011 718.46C479.011 718.463 479.012 718.466 479.013 718.469C479.013 718.471 479.013 718.473 479.014 718.475C479.014 718.477 479.015 718.48 479.015 718.483L480.491 718.217ZM480.485 718.185L481.96 717.909C481.952 717.869 481.939 717.805 481.933 717.772L480.462 718.067L478.991 718.363C478.996 718.389 479.002 718.416 479.005 718.432C479.007 718.441 479.008 718.447 479.009 718.453C479.01 718.455 479.01 718.457 479.011 718.459C479.011 718.46 479.011 718.46 479.011 718.46L480.485 718.185ZM480.462 718.067L481.933 717.772C481.91 717.657 481.875 717.495 481.829 717.293L480.367 717.631L478.906 717.969C478.945 718.14 478.973 718.274 478.991 718.363L480.462 718.067ZM480.367 717.631L481.829 717.293C481.735 716.89 481.592 716.324 481.384 715.648L479.95 716.09L478.517 716.531C478.7 717.128 478.826 717.624 478.906 717.969L480.367 717.631ZM479.95 716.09L481.384 715.648C480.97 714.306 480.294 712.496 479.24 710.667L477.94 711.416L476.641 712.165C477.55 713.744 478.147 715.332 478.517 716.531L479.95 716.09ZM477.94 711.416L479.24 710.667C477.14 707.022 473.343 703.017 466.991 703.017L466.991 704.517L466.991 706.017C471.837 706.017 474.818 709 476.641 712.165L477.94 711.416Z" fill="#1DC9A5"/>
<path d="M278.84 761.04C278.12 767.28 275.92 772.6 272.24 777C268.56 781.4 263.56 784.76 257.24 787.08C250.92 789.4 243.4 790.56 234.68 790.56C227.4 790.56 220.72 789.72 214.64 788.04C208.64 786.36 203.44 783.84 199.04 780.48C194.72 777.12 191.36 772.96 188.96 768C186.56 762.96 185.36 757.08 185.36 750.36C185.36 743.64 186.56 737.76 188.96 732.72C191.36 727.68 194.72 723.48 199.04 720.12C203.44 716.68 208.64 714.12 214.64 712.44C220.72 710.68 227.4 709.8 234.68 709.8C243.4 709.8 250.92 711 257.24 713.4C263.64 715.8 268.68 719.24 272.36 723.72C276.04 728.12 278.2 733.48 278.84 739.8H263C261.96 736.44 260.2 733.56 257.72 731.16C255.32 728.68 252.2 726.8 248.36 725.52C244.52 724.24 239.96 723.6 234.68 723.6C228.12 723.6 222.36 724.64 217.4 726.72C212.44 728.72 208.6 731.72 205.88 735.72C203.16 739.64 201.8 744.52 201.8 750.36C201.8 756.12 203.16 760.96 205.88 764.88C208.6 768.8 212.44 771.8 217.4 773.88C222.36 775.88 228.12 776.88 234.68 776.88C239.96 776.88 244.48 776.24 248.24 774.96C252.08 773.68 255.2 771.84 257.6 769.44C260.08 767.04 261.88 764.24 263 761.04H278.84ZM293.572 705.36H309.172V789H293.572V705.36ZM379.31 769.2H394.43C393.79 773.28 392.07 776.92 389.27 780.12C386.55 783.32 382.83 785.84 378.11 787.68C373.39 789.52 367.63 790.44 360.83 790.44C353.23 790.44 346.51 789.24 340.67 786.84C334.83 784.36 330.27 780.8 326.99 776.16C323.71 771.52 322.07 765.92 322.07 759.36C322.07 752.8 323.67 747.2 326.87 742.56C330.07 737.84 334.51 734.24 340.19 731.76C345.95 729.28 352.67 728.04 360.35 728.04C368.19 728.04 374.71 729.28 379.91 731.76C385.11 734.24 388.95 738 391.43 743.04C393.99 748 395.07 754.36 394.67 762.12H337.79C338.19 765.16 339.31 767.92 341.15 770.4C343.07 772.88 345.63 774.84 348.83 776.28C352.11 777.72 355.99 778.44 360.47 778.44C365.43 778.44 369.55 777.6 372.83 775.92C376.19 774.16 378.35 771.92 379.31 769.2ZM359.63 739.92C353.87 739.92 349.19 741.2 345.59 743.76C341.99 746.24 339.67 749.32 338.63 753H379.19C378.79 749 376.87 745.84 373.43 743.52C370.07 741.12 365.47 739.92 359.63 739.92Z" fill="white"/>
<path d="M504.2 729.36H519.8V789H504.2V729.36ZM547.52 728.04C551.2 728.04 554.6 728.52 557.72 729.48C560.84 730.44 563.56 731.92 565.88 733.92C568.2 735.92 570 738.48 571.28 741.6C572.56 744.64 573.2 748.28 573.2 752.52V789H557.6V755.28C557.6 750.24 556.36 746.56 553.88 744.24C551.48 741.84 547.52 740.64 542 740.64C537.84 740.64 534.08 741.44 530.72 743.04C527.36 744.64 524.64 746.68 522.56 749.16C520.48 751.56 519.28 754.08 518.96 756.72L518.84 750.6C519.24 747.8 520.16 745.08 521.6 742.44C523.04 739.8 524.96 737.4 527.36 735.24C529.84 733 532.76 731.24 536.12 729.96C539.48 728.68 543.28 728.04 547.52 728.04ZM603.243 763.8V751.08H638.763C643.003 751.08 646.363 749.96 648.843 747.72C651.323 745.4 652.563 742.2 652.563 738.12C652.563 733.88 651.323 730.64 648.843 728.4C646.363 726.16 643.003 725.04 638.763 725.04H605.163V789H589.203V711.36H637.323C641.643 711.36 645.683 711.88 649.443 712.92C653.283 713.96 656.603 715.56 659.403 717.72C662.283 719.88 664.523 722.64 666.123 726C667.723 729.36 668.523 733.4 668.523 738.12C668.523 742.76 667.723 746.72 666.123 750C664.523 753.28 662.283 755.96 659.403 758.04C656.603 760.04 653.283 761.52 649.443 762.48C645.683 763.36 641.643 763.8 637.323 763.8H603.243ZM681.505 729.36H697.105V789H681.505V729.36ZM720.025 742.2C715.545 742.2 711.665 743.08 708.385 744.84C705.105 746.52 702.465 748.6 700.465 751.08C698.465 753.56 697.065 755.96 696.265 758.28L696.145 751.68C696.225 750.72 696.545 749.32 697.105 747.48C697.665 745.56 698.505 743.52 699.625 741.36C700.745 739.12 702.225 737 704.065 735C705.905 732.92 708.145 731.24 710.785 729.96C713.425 728.68 716.505 728.04 720.025 728.04V742.2ZM764.829 790.44C757.309 790.44 750.669 789.24 744.909 786.84C739.229 784.44 734.789 780.96 731.589 776.4C728.389 771.76 726.789 766.08 726.789 759.36C726.789 752.64 728.389 746.96 731.589 742.32C734.789 737.6 739.229 734.04 744.909 731.64C750.669 729.24 757.309 728.04 764.829 728.04C772.349 728.04 778.909 729.24 784.509 731.64C790.189 734.04 794.629 737.6 797.829 742.32C801.029 746.96 802.629 752.64 802.629 759.36C802.629 766.08 801.029 771.76 797.829 776.4C794.629 780.96 790.189 784.44 784.509 786.84C778.909 789.24 772.349 790.44 764.829 790.44ZM764.829 778.44C768.989 778.44 772.709 777.72 775.989 776.28C779.349 774.76 781.989 772.6 783.909 769.8C785.829 766.92 786.789 763.44 786.789 759.36C786.789 755.28 785.829 751.8 783.909 748.92C781.989 745.96 779.389 743.72 776.109 742.2C772.829 740.68 769.069 739.92 764.829 739.92C760.669 739.92 756.909 740.68 753.549 742.2C750.189 743.72 747.509 745.92 745.509 748.8C743.589 751.68 742.629 755.2 742.629 759.36C742.629 763.44 743.589 766.92 745.509 769.8C747.429 772.6 750.069 774.76 753.429 776.28C756.789 777.72 760.589 778.44 764.829 778.44Z" fill="white"/>
<path d="M807.125 711C808.812 719.25 812 722.438 820.25 724.125C812 725.812 808.812 729 807.125 737.25C805.438 729 802.25 725.812 794 724.125C802.25 722.438 805.438 719.25 807.125 711Z" fill="#1DC9A5"/>
</svg>
