<svg width="400" height="200" viewBox="0 0 400 200" fill="none" xmlns="http://www.w3.org/2000/svg">
<rect width="400" height="200" fill="#828282"/>
<rect x="40" y="50" width="100" height="100" fill="white"/>
<path d="M61.375 105L63.2841 93.3636H65.1023L63.1932 105H61.375ZM56.1648 102.114L56.4659 100.295H65.5568L65.2557 102.114H56.1648ZM57.2841 105L59.1932 93.3636H61.0114L59.1023 105H57.2841ZM56.8295 98.0682L57.1364 96.25H66.2273L65.9205 98.0682H56.8295ZM67.402 105V93.3636H75.1065V95.392H69.8622V98.1648H74.5952V100.193H69.8622V105H67.402ZM76.7614 105V93.3636H84.4659V95.392H79.2216V98.1648H83.9545V100.193H79.2216V105H76.7614ZM86.1207 105V93.3636H93.8253V95.392H88.581V98.1648H93.3139V100.193H88.581V105H86.1207ZM95.4801 105V93.3636H103.185V95.392H97.9403V98.1648H102.673V100.193H97.9403V105H95.4801ZM104.839 105V93.3636H112.544V95.392H107.3V98.1648H112.033V100.193H107.3V105H104.839ZM114.199 105V93.3636H121.903V95.392H116.659V98.1648H121.392V100.193H116.659V105H114.199Z" fill="#313131"/>
<rect x="150" y="50" width="100" height="100" fill="#313131"/>
<path d="M172.375 105L174.284 93.3636H176.102L174.193 105H172.375ZM167.165 102.114L167.466 100.295H176.557L176.256 102.114H167.165ZM168.284 105L170.193 93.3636H172.011L170.102 105H168.284ZM167.83 98.0682L168.136 96.25H177.227L176.92 98.0682H167.83ZM182.635 105.159C181.786 105.159 181.031 105.013 180.368 104.722C179.709 104.426 179.188 104.021 178.805 103.506C178.427 102.987 178.232 102.388 178.22 101.71H180.697C180.713 101.994 180.805 102.244 180.976 102.46C181.15 102.672 181.381 102.837 181.669 102.955C181.957 103.072 182.281 103.131 182.641 103.131C183.016 103.131 183.347 103.064 183.635 102.932C183.923 102.799 184.148 102.616 184.311 102.381C184.474 102.146 184.555 101.875 184.555 101.568C184.555 101.258 184.468 100.983 184.294 100.744C184.124 100.502 183.877 100.312 183.555 100.176C183.237 100.04 182.858 99.9716 182.419 99.9716H181.334V98.1648H182.419C182.79 98.1648 183.118 98.1004 183.402 97.9716C183.69 97.8428 183.913 97.6648 184.072 97.4375C184.232 97.2064 184.311 96.9375 184.311 96.6307C184.311 96.339 184.241 96.0833 184.101 95.8636C183.964 95.6402 183.771 95.4659 183.521 95.3409C183.275 95.2159 182.987 95.1534 182.658 95.1534C182.324 95.1534 182.019 95.214 181.743 95.3352C181.466 95.4527 181.245 95.6212 181.078 95.8409C180.911 96.0606 180.822 96.3182 180.811 96.6136H178.453C178.464 95.9432 178.656 95.3523 179.027 94.8409C179.398 94.3295 179.898 93.9299 180.527 93.642C181.16 93.3504 181.874 93.2045 182.669 93.2045C183.472 93.2045 184.175 93.3504 184.777 93.642C185.379 93.9337 185.847 94.3277 186.18 94.8239C186.518 95.3163 186.684 95.8693 186.68 96.483C186.684 97.1345 186.482 97.678 186.072 98.1136C185.667 98.5492 185.139 98.8258 184.487 98.9432V99.0341C185.343 99.1439 185.995 99.4413 186.442 99.9261C186.893 100.407 187.116 101.009 187.112 101.733C187.116 102.396 186.925 102.985 186.538 103.5C186.156 104.015 185.627 104.42 184.953 104.716C184.279 105.011 183.506 105.159 182.635 105.159ZM193.943 93.3636V105H191.483V95.6989H191.415L188.75 97.3693V95.1875L191.631 93.3636H193.943ZM201.01 105.159C200.161 105.159 199.406 105.013 198.743 104.722C198.084 104.426 197.563 104.021 197.18 103.506C196.802 102.987 196.607 102.388 196.595 101.71H199.072C199.088 101.994 199.18 102.244 199.351 102.46C199.525 102.672 199.756 102.837 200.044 102.955C200.332 103.072 200.656 103.131 201.016 103.131C201.391 103.131 201.722 103.064 202.01 102.932C202.298 102.799 202.523 102.616 202.686 102.381C202.849 102.146 202.93 101.875 202.93 101.568C202.93 101.258 202.843 100.983 202.669 100.744C202.499 100.502 202.252 100.312 201.93 100.176C201.612 100.04 201.233 99.9716 200.794 99.9716H199.709V98.1648H200.794C201.165 98.1648 201.493 98.1004 201.777 97.9716C202.065 97.8428 202.288 97.6648 202.447 97.4375C202.607 97.2064 202.686 96.9375 202.686 96.6307C202.686 96.339 202.616 96.0833 202.476 95.8636C202.339 95.6402 202.146 95.4659 201.896 95.3409C201.65 95.2159 201.362 95.1534 201.033 95.1534C200.699 95.1534 200.394 95.214 200.118 95.3352C199.841 95.4527 199.62 95.6212 199.453 95.8409C199.286 96.0606 199.197 96.3182 199.186 96.6136H196.828C196.839 95.9432 197.031 95.3523 197.402 94.8409C197.773 94.3295 198.273 93.9299 198.902 93.642C199.535 93.3504 200.249 93.2045 201.044 93.2045C201.847 93.2045 202.55 93.3504 203.152 93.642C203.754 93.9337 204.222 94.3277 204.555 94.8239C204.893 95.3163 205.059 95.8693 205.055 96.483C205.059 97.1345 204.857 97.678 204.447 98.1136C204.042 98.5492 203.514 98.8258 202.862 98.9432V99.0341C203.718 99.1439 204.37 99.4413 204.817 99.9261C205.268 100.407 205.491 101.009 205.487 101.733C205.491 102.396 205.3 102.985 204.913 103.5C204.531 104.015 204.002 104.42 203.328 104.716C202.654 105.011 201.881 105.159 201.01 105.159ZM212.318 93.3636V105H209.858V95.6989H209.79L207.125 97.3693V95.1875L210.006 93.3636H212.318ZM219.385 105.159C218.536 105.159 217.781 105.013 217.118 104.722C216.459 104.426 215.938 104.021 215.555 103.506C215.177 102.987 214.982 102.388 214.97 101.71H217.447C217.463 101.994 217.555 102.244 217.726 102.46C217.9 102.672 218.131 102.837 218.419 102.955C218.707 103.072 219.031 103.131 219.391 103.131C219.766 103.131 220.097 103.064 220.385 102.932C220.673 102.799 220.898 102.616 221.061 102.381C221.224 102.146 221.305 101.875 221.305 101.568C221.305 101.258 221.218 100.983 221.044 100.744C220.874 100.502 220.627 100.312 220.305 100.176C219.987 100.04 219.608 99.9716 219.169 99.9716H218.084V98.1648H219.169C219.54 98.1648 219.868 98.1004 220.152 97.9716C220.44 97.8428 220.663 97.6648 220.822 97.4375C220.982 97.2064 221.061 96.9375 221.061 96.6307C221.061 96.339 220.991 96.0833 220.851 95.8636C220.714 95.6402 220.521 95.4659 220.271 95.3409C220.025 95.2159 219.737 95.1534 219.408 95.1534C219.074 95.1534 218.769 95.214 218.493 95.3352C218.216 95.4527 217.995 95.6212 217.828 95.8409C217.661 96.0606 217.572 96.3182 217.561 96.6136H215.203C215.214 95.9432 215.406 95.3523 215.777 94.8409C216.148 94.3295 216.648 93.9299 217.277 93.642C217.91 93.3504 218.624 93.2045 219.419 93.2045C220.222 93.2045 220.925 93.3504 221.527 93.642C222.129 93.9337 222.597 94.3277 222.93 94.8239C223.268 95.3163 223.434 95.8693 223.43 96.483C223.434 97.1345 223.232 97.678 222.822 98.1136C222.417 98.5492 221.889 98.8258 221.237 98.9432V99.0341C222.093 99.1439 222.745 99.4413 223.192 99.9261C223.643 100.407 223.866 101.009 223.862 101.733C223.866 102.396 223.675 102.985 223.288 103.5C222.906 104.015 222.377 104.42 221.703 104.716C221.029 105.011 220.256 105.159 219.385 105.159ZM230.693 93.3636V105H228.233V95.6989H228.165L225.5 97.3693V95.1875L228.381 93.3636H230.693Z" fill="white"/>
<rect x="260" y="50" width="100" height="100" fill="#1DC9A5"/>
<path d="M277.375 105L279.284 93.3636H281.102L279.193 105H277.375ZM272.165 102.114L272.466 100.295H281.557L281.256 102.114H272.165ZM273.284 105L275.193 93.3636H277.011L275.102 105H273.284ZM272.83 98.0682L273.136 96.25H282.227L281.92 98.0682H272.83ZM288.396 93.3636V105H285.936V95.6989H285.868L283.203 97.3693V95.1875L286.084 93.3636H288.396ZM295.355 105H291.23V93.3636H295.389C296.56 93.3636 297.567 93.5966 298.412 94.0625C299.257 94.5246 299.906 95.1894 300.361 96.0568C300.819 96.9242 301.048 97.9621 301.048 99.1705C301.048 100.383 300.819 101.424 300.361 102.295C299.906 103.167 299.253 103.835 298.401 104.301C297.552 104.767 296.537 105 295.355 105ZM293.69 102.892H295.253C295.98 102.892 296.592 102.763 297.088 102.506C297.588 102.244 297.963 101.841 298.213 101.295C298.467 100.746 298.594 100.038 298.594 99.1705C298.594 98.3106 298.467 97.608 298.213 97.0625C297.963 96.517 297.59 96.1155 297.094 95.858C296.598 95.6004 295.986 95.4716 295.259 95.4716H293.69V102.892ZM313.138 97.4375H310.649C310.604 97.1155 310.511 96.8295 310.371 96.5795C310.231 96.3258 310.051 96.1098 309.831 95.9318C309.611 95.7538 309.357 95.6174 309.07 95.5227C308.786 95.428 308.477 95.3807 308.143 95.3807C307.541 95.3807 307.017 95.5303 306.57 95.8295C306.123 96.125 305.776 96.5568 305.53 97.125C305.284 97.6894 305.161 98.375 305.161 99.1818C305.161 100.011 305.284 100.708 305.53 101.273C305.78 101.837 306.128 102.263 306.575 102.551C307.022 102.839 307.539 102.983 308.126 102.983C308.456 102.983 308.761 102.939 309.041 102.852C309.325 102.765 309.577 102.638 309.797 102.472C310.017 102.301 310.198 102.095 310.342 101.852C310.49 101.61 310.592 101.333 310.649 101.023L313.138 101.034C313.073 101.568 312.912 102.083 312.655 102.58C312.401 103.072 312.058 103.513 311.626 103.903C311.198 104.29 310.687 104.597 310.092 104.824C309.501 105.047 308.833 105.159 308.087 105.159C307.049 105.159 306.121 104.924 305.303 104.455C304.488 103.985 303.844 103.305 303.371 102.415C302.901 101.525 302.666 100.447 302.666 99.1818C302.666 97.9129 302.905 96.8333 303.382 95.9432C303.859 95.053 304.507 94.375 305.325 93.9091C306.143 93.4394 307.064 93.2045 308.087 93.2045C308.761 93.2045 309.386 93.2992 309.962 93.4886C310.541 93.678 311.054 93.9545 311.501 94.3182C311.948 94.678 312.312 95.1193 312.592 95.642C312.876 96.1648 313.058 96.7633 313.138 97.4375ZM319.044 93.2045C319.643 93.2045 320.218 93.3049 320.771 93.5057C321.328 93.7064 321.824 94.0265 322.26 94.4659C322.699 94.9053 323.046 95.4886 323.3 96.2159C323.557 96.9394 323.688 97.8277 323.692 98.8807C323.692 99.8693 323.58 100.752 323.357 101.528C323.137 102.301 322.821 102.958 322.408 103.5C321.995 104.042 321.497 104.455 320.913 104.739C320.33 105.019 319.679 105.159 318.959 105.159C318.182 105.159 317.497 105.009 316.902 104.71C316.307 104.407 315.828 103.996 315.464 103.477C315.105 102.955 314.887 102.367 314.811 101.716H317.237C317.332 102.14 317.531 102.47 317.834 102.705C318.137 102.936 318.512 103.051 318.959 103.051C319.716 103.051 320.292 102.722 320.686 102.062C321.08 101.4 321.279 100.492 321.283 99.3409H321.203C321.029 99.6818 320.794 99.9754 320.499 100.222C320.203 100.464 319.864 100.652 319.482 100.784C319.103 100.917 318.699 100.983 318.271 100.983C317.586 100.983 316.974 100.822 316.436 100.5C315.898 100.178 315.474 99.7348 315.163 99.1705C314.853 98.6061 314.697 97.9621 314.697 97.2386C314.694 96.4583 314.874 95.7633 315.237 95.1534C315.601 94.5436 316.108 94.0663 316.76 93.7216C317.415 93.3731 318.177 93.2008 319.044 93.2045ZM319.061 95.1364C318.679 95.1364 318.338 95.2273 318.038 95.4091C317.743 95.5909 317.508 95.8352 317.334 96.142C317.163 96.4489 317.08 96.7917 317.084 97.1705C317.084 97.553 317.167 97.8977 317.334 98.2045C317.504 98.5076 317.735 98.75 318.027 98.9318C318.322 99.1098 318.66 99.1989 319.038 99.1989C319.322 99.1989 319.586 99.1458 319.828 99.0398C320.071 98.9337 320.281 98.7879 320.459 98.6023C320.641 98.4129 320.783 98.1951 320.885 97.9489C320.987 97.7027 321.038 97.4413 321.038 97.1648C321.035 96.7973 320.947 96.4602 320.777 96.1534C320.607 95.8466 320.372 95.6004 320.072 95.4148C319.773 95.2292 319.436 95.1364 319.061 95.1364ZM327.47 105H324.834L328.851 93.3636H332.021L336.033 105H333.396L330.482 96.0227H330.391L327.47 105ZM327.305 100.426H333.533V102.347H327.305V100.426ZM341.615 105.159C340.812 105.159 340.096 105.011 339.467 104.716C338.842 104.42 338.346 104.013 337.979 103.494C337.611 102.975 337.42 102.381 337.405 101.71H339.791C339.818 102.161 340.007 102.527 340.359 102.807C340.712 103.087 341.13 103.227 341.615 103.227C342.001 103.227 342.342 103.142 342.638 102.972C342.937 102.797 343.17 102.557 343.337 102.25C343.507 101.939 343.592 101.583 343.592 101.182C343.592 100.773 343.505 100.413 343.331 100.102C343.161 99.7917 342.924 99.5492 342.621 99.375C342.318 99.2008 341.971 99.1117 341.581 99.108C341.24 99.108 340.909 99.178 340.587 99.3182C340.268 99.4583 340.02 99.6496 339.842 99.892L337.655 99.5L338.206 93.3636H345.32V95.375H340.234L339.933 98.2898H340.001C340.206 98.0019 340.515 97.7633 340.928 97.5739C341.34 97.3845 341.803 97.2898 342.314 97.2898C343.015 97.2898 343.64 97.4545 344.189 97.7841C344.738 98.1136 345.172 98.5663 345.49 99.142C345.808 99.714 345.965 100.373 345.962 101.119C345.965 101.903 345.784 102.6 345.416 103.21C345.053 103.816 344.543 104.294 343.888 104.642C343.236 104.987 342.479 105.159 341.615 105.159Z" fill="#313131"/>
</svg>
